<?xml version="1.0" encoding="UTF-8" standalone="no"?>
<!DOCTYPE svg PUBLIC "-//W3C//DTD SVG 1.1//EN"
"http://www.w3.org/Graphics/SVG/1.1/DTD/svg11.dtd">


<!-- Page 1 -->
<svg x="0" y="0" width="1210" height="935" viewBox="0 0 1210 935" version="1.1" xmlns="http://www.w3.org/2000/svg" xmlns:xlink="http://www.w3.org/1999/xlink"
style="display: block;margin-left: auto;margin-right: auto;">
<defs>
<clipPath id="c_1"><path d="M0,0H1210V935H0Z"/></clipPath>
<clipPath id="c0"><path d="M55,879.7V55H1155V879.7Z"/></clipPath>

<style type="text/css"><![CDATA[
text { white-space: pre; }
path, image { pointer-events: none; }

.s1{
font-size: 9.04px;
font-family: Arial-0-50_v;
fill: #7F7F7F;
}
.s2{
font-size: 17.38px;
font-family: TableauLight-0-50__;
fill: #333333;
}
.s3{
font-size: 10.43px;
font-family: TableauBook-0-50_p;
fill: #333333;
}
.s4{
font-size: 10.43px;
font-family: TableauMedium-0-50_j;
fill: #333333;
}
.s5{
font-size: 10.43px;
font-family: TableauBook-0-50_p;
fill: #666666;
}

.g0{
fill: #FFFFFF;
}
.g1{
fill: none;
stroke: #000000;
stroke-width: 1.39;
stroke-linecap: butt;
stroke-linejoin: bevel;
}
.g2{
fill: #BB8171;
}
.g3{
fill: none;
stroke: #686868;
stroke-width: 0.695;
stroke-linecap: butt;
stroke-linejoin: bevel;
}
.g4{
fill: #D9D9D9;
}
.g5{
fill: #CAAAA2;
}
.g6{
fill: #2B5C8A;
}
.g7{
fill: #A3B5C5;
}
.g8{
fill: #7493B1;
}
.g9{
fill: #4C769E;
}
.ga{
fill: none;
stroke: #E6E6E6;
stroke-width: 0.695;
stroke-linecap: square;
stroke-linejoin: bevel;
}
.gb{
fill: #FFFFFF;
fill-opacity: 0.8;
}
.gc{
fill: #BB8171;
fill-opacity: 0.8039216;
}
.gd{
fill: #CAAAA2;
fill-opacity: 0.8039216;
}
.ge{
fill: #D9D9D9;
fill-opacity: 0.8039216;
}
.gf{
fill: #A3B5C5;
fill-opacity: 0.8039216;
}
.gg{
fill: #7493B1;
fill-opacity: 0.8039216;
}
.gh{
fill: #4C769E;
fill-opacity: 0.8039216;
}
.gi{
fill: #2B5C8A;
fill-opacity: 0.8039216;
}
.gj{
fill: none;
stroke: #ACA899;
stroke-width: 0.695;
stroke-linecap: butt;
stroke-linejoin: miter;
}
.gk{
fill: none;
stroke: #000000;
stroke-width: 0.695;
stroke-linecap: butt;
stroke-linejoin: bevel;
}

]]></style>

</defs>
<path d="M0,0
L0,935
L1210,935
L1210,0 Z " 
fill="#FFFFFF" stroke="none"/>
<g clip-path="url(#c_1)">
<g clip-path="url(#c0)">
<path d="M55,55H1155V879.7H55V55Z" class="g0"/>
</g>
<path d="M55,89.8h995V564H55V89.8Z" class="g0"/>
<path d="M55,89.8h995.7V564.7H55V89.8Z" class="g0"/>
<path d="M55,124.5h995V564.7H55V124.5Z" class="g0"/>
<path d="M55,89.8h995.7V564.7H55V89.8Z" class="g0"/>
<path d="M55,89.8h995.7V564.7H55V89.8Z" class="g0"/>
<image preserveAspectRatio="none" x="55" y="90" width="995" height="474" xlink:href="1/img/1.png"/>
<path d="M600.4,438.3l-.1,.6l.4,.9l3.4,4.8l-.1,.7l1,2.4l.7,.2l.1,.5l2.1,1.5l2.4,.7l.4,2.3l2.2,.1l-.1,3.1l1.1,1.3l.5,1.3l2.5,.6l.4,-.3l2.1,.8l.4,.2l-.3,.8l.3,.5l.9,.1l.6,.8l1.5,-.4L626,463l2.8,-.3l1.6,.2l.8,.5l5.9,-6.2l-.5,-1l.7,-1.1l-.1,-1.5l.9,-.4l1,-1.5v-.9l.8,-.6l.1,-1.3l-.4,-.6l-.6,.2v-1.1l-.4,-.1l.5,-2l-.2,-.4h-.6v-1.1l1.1,-.3l-.2,-1.3l.7,-.3l.1,-.6l-.5,-1.8l.5,-2l-.4,-.8l.4,-.7l-1,-2.3l.4,-.2l.3,-1h-1.2l-.2,-.5l-2.2,-.9l-1.8,-.1l-1,-1.1l-1.4,-.3l-.8,-.8l-.8,-.1l-.7,.4l-.4,-.3h-2.5v-2l-1.1,.2l-2,-.3l-1.9,.4l-2.5,1.4l-.5,.5l-.3,2.4l-5.1,2.7l-.9,1.8l-1.8,1.6l-1.1,1.7l-1.8,.6l-2.4,-1l-1.3,.6l-1.5,-1l-.8,.3l-1.3,-.4ZM594,402l.4,2.7l-.5,1.5v2.5l.5,1l-.6,.8l-.4,1.7l.8,.8H583.8v16.8l1,1.9l4.8,4.9l1.5,.9l4.9,-.9l3,.4l1.8,1.6l1.7,-.2l1.5,1l1.3,-.6l2.4,1l1.8,-.6l1.1,-1.7l1.8,-1.6l.9,-1.8l5.1,-2.7l.3,-2.4l.5,-.5l1.9,-1.2l2.5,-.6l3,.2l-.1,-1.5l-.6,-.7l-.2,-1.2l15.2,-5.2l-.3,-.5l-.7,.7l-.4,-.9l-.9,-.5l.2,-.7l-.6,-.2l.8,-.5l.9,-1.6v-1.5l-.4,-.8l.5,-.8l1.7,-.3l.9,-1l-.9,-.1l-.6,-1.1l.4,-1.7l-.1,-1.1l-.5,-.2v-.7l.4,.1l.6,-1.5l-.8,-1.5l1,-.2l1.1,-1.1l-.6,-1.2v-.8l-1.1,-.8l.2,-1.1l-.8,-1.2l-.5,-.1l-.1,.4l-.5,-.3l-.2,-1.2l-2.1,-.7l-.6,-.7l-2.4,-.3l-.1,-.7l-1.3,-.1l-.7,-1.1l-.8,-.4H630l-1.3,-1.9l-9.5,1.1l-.3,1.5l-1.8,3l.8,2.4l-.6,2.2l.6,2.3l-.5,.3l-.6,1.9l-.5,2.4l.3,1.3l1.6,.9l1.4,2.1l1.2,-.1l1.1,.5l.2,-.2l-.2,-.9l1.7,-.6v6.8l-1.1,-.2l.4,-.7l-.5,-.3l-2,1.2l-.4,-.4l-.6,.2l-1,-2.3l-.7,-.7l-.5,.4l-.6,-2L616,410l-1.8,-.3L614,409l-1.5,.2l-.6,-.5l-.2,-1.2l-1.3,-.8v-1.1l-1,.2l-.1,1.2l-.6,.7l-4.6,-.2l-.5,-.7h-.9l-.3,-.4l-.8,.3v-.5l-.8,-.3l-.3,-1.4l.4,-.9l-2.5,.4l-1.4,1l-.9,-.1l-.6,-.3l.5,-.6l-.1,-.9l-1.1,-.3l-.2,-.7L594,402Zm34.9,-73.5h.4v.4l-.9,1.8l.7,.9l-.8,2.2l.9,.5l.2,-.3l.5,.1l1.4,1.2l-.6,1l-3.1,3.1l-1.9,1.2l-.4,1.2l-1.1,.4l-.3,.8l.3,1.4l-1.1,1.6v1.2l-.7,.6l.5,.8l-.2,2.2l-.4,.3l.1,2.2l1.3,-.3l.4,.9l1.3,-.7l.9,-1.5h1.6l.6,-.4l16.1,.1l.2,-4.4l-.3,-1.2l.9,-1.3l.2,-1.2l.7,-.3l.8,-1.1l.4,-1.2l1.4,-.6v-1l1.1,-1.3l-.4,-4.3l-2.4,-3.4l-.4,-1.5l.4,-1l-1.6,-.6l.3,-.5l-.6,.1l.2,-.5l-.7,-1.3l-2.4,2.4l-1.6,-.1l-.9,-.6l-1.5,.6l-1.6,.1l-1.2,1.2l-1.1,-.3l-.7,-1.2l-1.6,.9l-1.1,-.8h-.6l-1.1,.5l-.5,1ZM515.9,143.8l.1,.8l-1.2,.3l.1,.9l-1.5,.9l1.3,.4l-.8,3.4l.6,2.6l-.3,.9l.7,.6l-1,1.9l.2,1.1l-.7,1.1l-1.5,.9l-.3,1.3l-.8,.1l-.6,.8v1.6l1.1,2.3v1l1.8,1l-.1,.2l1.2,1.4l.2,2l3.6,2.4l2.5,11.1l1.9,-.9l1.8,-2.6v-1.6l-.8,-2.3l.9,-1.3l1.1,-.3l.7,-1.4l.7,-.1l.9,-1.1l3.3,-1.7l-.7,-1.1l.4,-3.2l-2,-.2l-.6,-2.5h-.6l-.1,.5l-.8,.4l-.4,-.4l.2,-1.1l-1.2,.5l-.7,-.5l-1.3,-1.4l-.3,-1.1l.5,-1.2l3,-2l2.1,-3.8l-.5,-.7l.1,-1.6l-.9,-.4l-.3,-.6l-.8,-.2l-1,-2.3l.6,-1.4l1.2,-.4l1.6,-2.6l-.5,-1.3l-2.3,1.4l-.2,.6l-.9,.2l-.4,-.4l.2,-.8l-.6,-.4l-.4,-1l.7,-.2l-1,-.6h-.9l.1,.7l-.5,.1l-.1,-.6l.5,-.2l-.1,-.4l-.6,-.1l-2.8,.8l-1.9,1.6l-.9,.2ZM529.1,157l-.6,1.1l.9,-.6l-.3,-.5Zm-.8,1l-.6,.1l.4,.3l.2,-.4Zm-1.7,5.2l-.1,.7l.5,-.1l.2,.5l1,-.8l-.6,-.6l-1,-.1v.4ZM471.2,289.3l.8,.3l-.5,2.2l2.4,1.7l-.2,3.3l-.5,.1l.6,.4l-.7,.1l.3,.2l-.4,.3l1.2,-.2l.6,.5l-.6,1.9l.4,.8l-.8,.7l1.4,1.3l.4,1l-.7,.5l.2,2.6l-.6,.9l.7,1.1l-.6,2.3l1.1,2.1l1.3,.6l1,1.1l3,-.8l-1.1,-2.1l-.1,-1.6h.4l.2,-2.6l-.2,-7.9l-1.4,-2.3v-2.7l-3,-2l.7,-3.1l-2,.4l-.1,-.5l-3.2,-.6Zm150.3,79.5v2.9l1.4,3.2l-.8,3l.7,1.3l3.1,2.9l1.1,3.6l2.4,3.9l.6,.7h1.6l.8,.4l.2,.7l.5,.4l1.3,.1l.1,.7l2.4,.3l.6,.7l2.3,.5l.8,.7h.8l.7,.6l1.6,-.1l.8,.6l.6,-1.1l2.5,3l.2,2.4l.5,1.1l-.3,1.6l1.6,1.8l.2,.9l3.5,-.1l1,-.8l1.4,.6l.5,1l2.1,.1l.8,-.9l3.2,.7l1.6,-.7l.9,-1.5l1.8,.1l.9,.7l2.2,-1.3h2l1.4,-1l2.2,-.8l2.3,-1.8l-.1,-.9l-.4,.3l-.5,-.8l-.1,.4l-.4,-.2l-.1,-.4l-2.1,-1l.5,-.7l-1,-2.2v-1.8l-.3,-.2l.1,.3l-.5,.1v-1l-.4,-.1l.7,.1l-.9,-1.2l-.4,-1.9l.4,-.1l.5,-1.5v-.9l-.8,-.5l-.1,-.6l1.4,-2.9l-.3,-.7l-1.1,-.6l-1,-1.4l-1,-.6l-.5,-1.8l1.8,-4.7l-.1,-1l.5,-.4l.1,-1l-7.3,-5.1l-.3,-.6l-.6,-.1l-.2,-.5l.7,-.6l-.2,-1.3L645.5,351.5l-17,-.2l-1.6,.4l.5,1.4l.9,.4l-.1,.5l.6,.6l-.2,1.5l.5,.8l-.4,1.4l-1.4,.3l-.6,1.2l.5,.2l-.5,.7l.3,.6l.4,-.3l.5,.5l.9,-.1v1.5l-.9,.3v.6l-1.1,.6l-.2,1.1l-.8,.6l-1.1,1.9l-1.1,.5l-.3,.5l-1.8,-.2Zm53.4,16.5l-1.4,1.7l1.1,-.3l.3,-1.4Zm-1,-12.1l-.4,.6l.6,.3l.5,-.9l.2,-1.9l-1.1,.2l.4,1l-.2,.7Zm.5,13.8h-.2l.1,.3l.1,-.3Zm-3.1,-10l.1,1.1l.4,.4l.1,-.4l1.1,1.2v-1.5l-.5,-.2l-.6,-2.1l-.2,.7l-.5,.2l.1,.6Zm1.7,15.1h-.2l.1,.2l.1,-.2ZM555.6,498.4l1.9,2.7l3.1,9l4.3,7.5l.2,4.1l-1,1.3l-1,-.4l-.4,.7l.2,1.2h.7l.4,.8l-.6,-.4l-.1,.3l2.4,3.4l.3,1.1l-1,1l.4,1.4l.4,.4v-1.4l1.8,-.1l.3,.4l-.2,1.4l1.1,-.3l.4,.5l.7,-.1l.5,.6l-.2,.7h.5l1.2,1.1l1.1,-.1l.6,.4l2.6,-2.2l1.8,-.1l.2,-.6l2.1,.4l.7,-.4h2.2l.3,-.8l1,-.3l-.1,-.4l.6,-.4l1.8,-.4l4.1,.7l.2,-.6l1.1,-.2l6.1,1.4l.7,-1.4l3.3,.4l.4,-.1l-.5,-.5l.1,-.6l.8,-.6l1.5,-.3l1.9,.4l3.3,-1.5l7.3,-5.8l4.5,-5.3l2.1,-1.4l1.6,-1.8l6,-10.4l2.2,-2.4l1.2,-.5l1.9,-1.8l.9,-2.6l1.7,-7.3l-4.4,-.2l-.2,2.9h-2.5l-1.7,-.7l-.9,-.9l-.4,-1.4l-.4,.3l-.1,-2.2l1.7,-3.1l.9,-1l.5,-.1l2.3,1.6l.6,-.3l-.3,-.6l.6,-4l-.3,-4.7l-.5,-1.9l-.6,-.4l-1,-2.2v-1.6L631,463.1l-2.2,-.4L626,463l-3.2,-1.2l-3.2,.5l-.6,1.3l-2.1,.7l-.8,-.1l-3.1,3.7l-.7,-.1l-.4,.9l-1,.1l-1,.8l-.3,.7l-.5,.2l-.6,3.1l-1.3,.8l-1,1.3l-2.8,.7l.2,.7l-1.9,4.5l-1,.5l-1.4,-.3l-1.8,.6l-1.6,-.4l-.9,-.8l-1.5,.1l-2.2,-2l-2.4,.2L588,481l-.5,2.5l-.9,1.1l-.4,-.1l-1.1,.8l-1,1.7l-1.4,.2v.7l-.4,.4h-2.9l-1.3,-.4l-1,.4l-.4,-2l1.3,-2.2l-.2,-1.5l-.9,-1.3l.1,-1.1l-.7,-.7l-.7,-1.6l-2,-1.5v20.9l-2.3,.6l-.4,1l-1,.2l-.1,.9l-.6,.4l-1,-.7l-1,-.1l-2.7,.5l-1.2,-.8h-1.6l-.4,-.6l-.8,.2l.1,-.8l-.5,-.6l.4,-.5l-.2,-.5l-.2,-.4l-.6,.1l-.2,-.8l-.5,-.4l-.9,.2l-.4,1.2l-.4,-.1l.3,.6l-.4,.7l-1.3,.5l-.1,.3Zm54,6.3l-.2,-.5l1.4,-.5l2.4,-3.7l1.2,-.2l.8,-.9l2.4,-.8l.9,1.1h.4l.4,.8l1.7,1l.7,1.6l-.8,.8v.9l-.8,.6l-.1,.6l.3,.4l-1.6,1l-2.3,.4l-.9,.7l.2,.5l-.6,.7l-.1,1.1l-2,-.3l-1.7,-1.8v-.9h-.4l-1.3,-2.6ZM404.2,300.1l.9,1l-.6,.2l.4,1.4l.7,-.4l.6,.3l-.6,-.1l-.6,.6l-.6,-.2l-.1,.4l.6,1l.9,-.1l.5,.8l-.2,1.1l1.1,.9l1,-.2l-.1,.4l.6,.5l-.3,.9l5,2.4l.6,-.5l.3,-1l3.6,-2.9v-1.4l1.6,-.9l-.1,-1.4l-1.2,1l-.6,-.2l.3,-1l.7,-.7l-.5,-2l-.8,-.1l.4,-1.1l-.9,-.8l-1.9,-2.9l-3.5,.1l-1.3,.6l-.4,-.3l-1.1,.2l-1.8,3l-.8,.2v.5l-.6,.6l-1.2,.1Zm3.9,7.7l.2,-.2l-.5,-.3l-1.7,.2l1.9,1.1l.3,-.6l-.2,-.2ZM386.7,279.3l-.2,1.6l1,-.3l-.2,.7l1,.4l-.8,-.2l-1,.6l.3,.9l3.3,-.7l2,.3l2.6,-1.4l10.7,.3v.8l.5,.1l.4,-.5l2.8,1.3l1.1,-.6l1.9,.2l2,-.4l-.4,-1.3l.3,-.1l.1,-1.3l-1.4,-2.2l-.4,-.1l-.5,.6l-.4,-.4l.1,-.4l-1.1,-1.4l.7,-1l-.3,-.3l-.2,-1.7l-.8,-.6l.2,-1.4l-1.5,-1.2l-.2,-.6l-1.8,-1l-.6,-1.6l-.7,.1l.1,-.5l-.7,-.1l-.8,-2.4l-1,-.4l-1.4,.1l-.6,-1.1L399,260.8v-.4l-3.9,-.2l-.1,.5l-1.4,.3l-.4,-.3l-1.2,.6h-1.7l-.4,-.4l-.9,.2l-1.1,2.4l-.4,2.1l-1.5,2.3l-1.3,1.7l-2,.8l.4,.4l.3,-.3l1,.3l1.2,1.4l1,2.3l.9,-.4l-.8,.5l.3,.5l.5,.1l.5,-.6l-.8,1.3l.5,.6h5.4l.5,-1l1.7,-.3l1,.3l.7,.8l.9,-.1l1.1,1l2.1,-.6l.6,1l-1.8,.8h-1.1l-2.9,-1.2l-.8,-.8l-1.1,1.3l-2.5,.1v.9H387l-.3,.6Zm.5,1.7l.3,-.3l-.9,.4l.1,.7l.6,-.3l-.1,-.5Zm-.1,-5.8l-.3,-.4l.1,.7l.2,-.3Zm235.3,78.1l-1.7,1.4l-.7,3l-1.3,.9l.4,1.4l.5,.3l.2,-.8l1.3,.3l.2,.9l1.7,-.1l1.1,-.6l.2,-1.9l.9,.6l1.4,-.7l.8,.6l1.5,-.5l-.1,-3.5l-.6,-.6l.1,-.5l-.9,-.4l-.5,-1.4h-.6l-.9,1.5l-1.3,.7l-.4,-.9l-1.3,.3Zm-117.2,-30l.4,1l.4,-.1l-.2,-.7l.3,.6h.7l-.3,-.9l.3,.7l.6,.1l-.3,-1.1l.8,-.7l1,1.2l.3,-.1l-.2,-.5l1,.5l-.8,.3l4.8,-.4l.3,-.4l-.1,-.7l-.8,-.9l1.9,1.1l1.4,-2.4l.6,-2l-.4,-.6l.1,-.8l2.1,-1.8l.3,-.8l.5,.2l.1,-.7l1.3,-.3l.3,-1.4l.6,.1l1.3,-1.3l.4,.6l1.4,-.1l.4,-1.2l1.3,1.1l-.1,.4l.5,.8l.9,.1v.7l1.3,.2l.9,-.5l.2,-1.3l.8,-1h.6l-.1,-1.2l1.1,-1.2l.1,-1l.9,-1.5l.1,-2.2l2.8,-1.6l.5,-1.9l-.1,-1.4l1.8,-1l.4,-1.3l-.4,-.4l.1,-.7l1,-.6l.6,-1.8l-.2,-.6l.9,-1.8l1.4,-1.7l.8,.3l2.5,-1.4l.1,-.7l-.5,-.4l.7,-2.3l-1.1,-1l-1.4,-.1l-.6,-3.6l-2.2,-3.3l-1.5,-.1l-.6,.8l-1.8,.4l-1.8,1.5l-.3,.7l-1.6,-.2l-3.2,-1.3l-4.4,-.1l-3.1,1l-2,2l-3.6,-.2l-2.7,-1.1L513,278l-1.3,-.3l-2.2,1.3l-.9,-.1l-.5,.6h-.9L505,276.6L500,275l-1.5,.7l-1.9,-.1l-2.1,.4l-1.6,1.1l-.2,2.5l-.8,1.2l-1.5,1.3l-.1,3.1l.3,.8l-1.1,1.6l1.4,1.7l.6,2.8l-.3,.9l-.8,-.1l-.3,.7l.5,.7l-.4,1.1l-1.4,.8l.1,.6l-1,1.1l-.3,1.9l-1.6,.1l-.4,3.7l.3,.9l-.4,1.5l.6,2.4h-.2l.2,2l-.4,.5l.4,1.2l-.4,1.7l5.6,-.3l3.3,.5l2.4,2l1.2,1.8l.6,-.2l-.7,.5l.3,.3l1.1,.4l.4,-.3l.2,.4H499l.1,1l1,2.3l1,1.3l1.6,1l-.1,-.4l.5,-.4l-.2,.8h.6l.1,-.7l.4,-.1l.7,.6h.7l-.2,-1Zm4.3,-.3l-.2,.2h.2V323Zm-.6,.4l-.2,-.2l-.5,.8l.9,-.2l-.2,-.4Zm-1,-.5l.5,.1l-.6,-.8l-.3,.7l.8,.6l-.4,-.6Zm0,.2v.2l.1,.3l-.1,-.5Zm-.1,.6v-.5h-.3l.3,.5Zm-.4,-.7l-.2,-.2v.2h.2Zm-3.6,1l-.1,.4h.8l-.4,-.6l-.3,.2Zm-.7,0v-.2l-.2,.2h.2ZM473,269.1l-.3,2.4l1.2,1.5l-.1,1l1.2,1.9l.8,.1l2.6,1.7l-1.5,-.1l.1,2h.6l2.3,1.9l1.5,.1l.6,-.7l.9,.3l.6,1.4l-1.1,.4l1.7,2.3l.3,-.6l-.4,-1.2l1.6,-.2l.9,-.5l2.2,2.5l.9,.2l.6,.9l.4,-.4l-.3,-.8l.1,-3.1l1.5,-1.3l.8,-1.2l.2,-2.5l1.6,-1.1l2.1,-.4l1.9,.1L500,275l5,1.6l2.2,2.9h.9l.5,-.6l.9,.1l2.2,-1.3l1.3,.3l1.7,1.3l2.7,1.1l3.6,.2l2,-2l3.1,-1l4.4,.1l3.2,1.3l1.6,.2l.3,-.7l1.8,-1.5l1.8,-.4l.6,-.8l1.5,.1l-.9,-4l1.1,-.4V271l.6,-.4l.3,-1.7l2.6,-3.6l5.7,-6.2l.5,-10l.8,-6.3l1.3,-2.3l-2.1,-2.3l-.3,-.6l.5,-.4l-2.2,-2.9v-2.8l-1,-5.5l-4.1,2l-4,-3.2l-7.2,-1.7l-23,14.7l-8.4,7.6l-8.1,1.7l.1,11.4l-.9,.5v3.1l-.9,3.1l-1.8,1.3l-.1,.8l-4.9,-.1l-6.2,.5l-2,1.5l-3.7,-.1ZM404.9,199.6l22.9,.1v-6.1l5.4,-3.8l1.3,-.1l1,-.7l2,.3l1.9,-.4l1,.4l2.4,-.7l-.2,.3l.7,.5l2.4,-3.2l4.2,-3l2.5,-.6l.3,-1l1.2,-1.3l-.9,-1.1l-.3,.3l-.1,-1l.6,-.6l.1,-1.4l4.2,-1l-.5,-1.4l.2,-.5l4.4,-.3l3.9,.5l.5,-.2l-.6,-.3l.1,-.5l1.2,-1.6l-1.9,-1.5l-.8,-1.2l.4,-.7l-1,-1.3l.4,-1.5l-.6,-1.1l.3,-2.4l-.7,-1.8l.4,-.5l-.7,-.9l.5,-.7l-2.4,-2.2l-1.1,-.3l-.7,.4l-1.7,-.5l-.2,-1.7l-.7,.9l-1.3,.6l-1.9,-.6l-.4,.5l-.7,-.4l-2.5,.7l-1.7,-.4l-1.6,-1.2l-.9,-.8l-.7,-2.3l-2.1,.8h-.7l-1.9,5.7l-2.5,4.8l-1.3,1.3l-2.4,1.5l-5,2.2l-4,4.4l.2,2.2l-3,4.6l.2,3.5l-.4,1.1l.5,.2l.9,1.1l-.2,1.5L422,187l-2.1,3.2l-1.6,1.7l-2.8,1.6l-2.3,2.6l-3.5,1.4l-.4,.4l.3,-.4l-3.4,.6l-1.3,1.5Zm-19.8,38.6l.6,-2.1l1.3,2.6l.8,.7l.2,-.9l1.4,2.7l-.3,.5l.1,1.9l-1.1,1.9l.9,-.6l-.6,.8h-.7l1.8,2.5l.9,5.1l-.5,3l-1.7,4.2l-.3,3l1.3,-2.5l2.8,.3l1.2,-.6l.4,.3l1.4,-.3l.1,-.5l3.9,.2v.4l1.8,1.3l.6,1.1l1.4,-.1l1,.4l.9,1.9l-.2,.2l.8,.4l-.1,.5l.7,-.1l.6,1.6l1.8,1l.5,.9l1.7,.7l1.4,-1l-.2,-1.5l.6,-1.8l.7,-.1l.6,-.5l2.8,2.8l.9,-1.7l6.4,.1l.4,-.1l-.3,-.9l.6,-.5v1.1l19.5,-.1l.9,-4.4l-1.4,-.8l-3.8,-46.3h7.7L427.8,201.7v7.5h-17v14.3l-2.9,.9l-2,1.2l-.7,1l.5,8.6h-20l-.6,3Zm3.7,5l-.9,.7l.4,.7l.5,-1.4Zm20.8,27.1l.5,.7l-.3,1.2l1.1,1.1l-.1,1.2l.3,.3l-.7,1l.2,.5l1.2,1.7l.5,-.6l.4,.1l1.4,2.2L414,281l-.3,.1l.4,1.3l-.7,1.4l1,.9h.6l.7,-1.1h.5l1.2,1.7l1,-1.2l1,-.5l3.1,1l.3,-.7l1.7,-.6l-.2,-1.1h1l1.1,.9l-.2,.7l.9,.9l-.2,1.9h.7l.4,.9l1.3,.5v.5l-.9,.4l-.6,1.3l.8,-.1l.1,-.5h.8l.5,3.4l.6,-.1l.1,.4l.7,.2l-.1,.8l.9,-.4l.8,-1.2h.8l.6,.6l-.1,.4l1.8,.6l.4,-1.1l1.6,-.1v-1.4l1,.5l.1,-.6l.9,-.3v1.1l.4,.5l-.3,.7l1,.5l1.2,-1.2h1.4l.3,-.7l.2,-1.3l-.4,-1.3l.9,-.4l.6,-1.5l-.4,-1l.1,-.5l-.5,-.4l1.2,-.8l2.5,-.5l.8,-1.4l.4,.1l-.2,-.6l.4,-.6l-.6,-.9h.9l.5,-.6l-.7,-1.7l2,-1.8v.6h.8l1.8,1.2v-.7h1V276h.7l.4,.4l.8,-.2l.1,-2.1l1.9,-1.3l1.9,.8l.5,-.3l.1,-1.5l1,.1l2.4,-1.4l1.3,-.3l1.7,-1.6h1.4l.3,.5l.7,-.4l1.5,.5l3.3,.2l1.3,-.2l2,-1.5l6.2,-.5l4.9,.1l.1,-.8l1.8,-1.3l.9,-3.1V259l.9,-.5l-.1,-11.4l-4.2,.9l-.5,-.2l-.9,-.7l.7,-1.7v-2.1l-2.5,-.8l-.4,-.5l-1.6,.1l-.5,-1.3l-1.8,.4l-.7,-.4l-1,-1.6l-1.4,-.8l-.7,.1l-.1,-2.2L447.3,214.9h-7.7l3.8,46.3l1.4,.8l-.9,4.4l-19.5,.1v-1.1l-.6,.5l.3,.9l-.4,.1l-6.4,-.1l-.9,1.7l-2.8,-2.8l-.6,.5l-.7,.1l-.6,1.8v1.7l-1.2,.8l-.9,-.3Zm230,124l.2,1.2l.5,.3l.1,-.4h.4l.9,1.3l-.2,1.1l1.1,.8v.8l.6,1.2l-1.1,1.1l-1,.2l.8,1.5l-.6,1.5l-.4,-.1l.6,2l-.4,1.7l.6,1.1l.9,.1l-.9,1L640,411l-.5,.8l.4,.8v1.5l-.9,1.6l-.8,.5l.6,.2l-.2,.7l.9,.5l.4,.9l.7,-.7l.7,.6v.6l2,2.4l.2,-.6l.4,.3l2.8,-.8l.8,.9l.4,3.7l-.8,1l.1,.8l-1,1.5l.9,.9l-.1,1l.8,.4l1.8,2.2l1.1,.5l-.3,1.4l1.1,.2l-.1,-2.2l-.7,-.9l.6,-.4l.2,-1.3l.5,-.6l.6,.3l1.5,-.7l.2,-3.3l-.3,-1.3l.6,-1.5l-.2,-1.1l-4,-5.2l-1.1,-1.1H648l-.5,-.6l.2,-1.6l-.7,-4.6l1.2,-3.1h1.6l-.2,-.9L648,402.9l.3,-1.6l-.5,-1.1l-.2,-2.4l-2.5,-3l-.6,1.1l-.8,-.6l-1.6,.1l-.7,-.6h-.8l-1,-.5Zm53.7,63l-.3,1.8l-.6,.6v.8l-.3,.1l-.3,1.3l.4,.4l-.4,.2v.4l.7,2.8l1.2,1.3l.1,1.3l.7,.7v.7l-.6,.6l.2,3.6l1.3,1.8l.7,2.3l1.8,1.2l2,.4l1.8,1.5l1.9,-.2l2.8,-1.7l1.2,-.4l2,-.1l1.9,-1L714,471l1.6,-7.3l7.8,-23.5l.4,-2.4l-.5,-1.9l.9,-2.3l1.1,-.3l-.4,-.7l.6,-.8l.1,-1.9l-1,-.9l.3,-.7l-.6,-1.9l.6,-.6h.9l.6,2.4l1,.5l1.3,-3.5l-1.3,-3l-.4,-4.9l-1.1,-3.2v-.9l-.9,-1.4h-.4l-.6,-.7l.2,-.6l-.4,-.9l-.3,.2L723,409v.4l-.8,-.1l.4,-.2l-.3,-.1l.2,-.4l.6,.3l-.4,-1.3l-.6,.3l.1,.4l-.5,-.1l.5,.3l-.3,.7l-.9,.4l-.1,.8l-1,-.4l.6,.6l.4,1.5l-.9,3l-.9,.3l-.5,-.4l.2,.8h-.9l-.5,1.5l-1,-1.5l-.8,.3l-.2,.9l.2,.7l.6,.3l-.5,.3l.6,.5v.9h-.4l.2,-.8l-.5,-.2l.2,.8l-.7,-.1l-.6,1.2l.3,.9l.2,-.3l1.1,.2v.3l-.2,-.2l-.2,.3l-.7,-.5l-1.8,2.8l-.2,-.7l.6,-.9l-.3,-.7l-.4,.4l-.5,.6l.5,.2l-1.6,1.4l.6,1.6l-.4,-.1l-.3,.6l-.4,-.3l.5,-.8l-.6,-.9l-3.1,2.5l-.1,.3h.3l-.3,.5l.8,.8l-.8,-.1l-.6,-1.3l-.5,.1l-.3,.7l-.8,-.5l-1,.2l-.5,1.3l-.2,-.5l-1,.2l.2,.4l-.5,.4l-.2,-1.1l-2.1,1.7l-2,-.3l-.1,2.8l-2.5,4.2l.5,1.6l.1,3.3l1,2v1.6l1.1,2l-.4,1.7l.5,.9l-2.9,4.9l-.6,2l-1.4,.5Zm33.1,-24.8l-.7,.9l.1,.4l.6,-1.3Zm-8.5,-17.2l-.1,.2h.2l-.1,-.2Zm-.4,-1.2l-.4,.9l.7,.2l-.3,-1.1Zm-2.3,4.4l-.2,-.4v.3l.2,.1Zm-1.1,2.6L714,421l.2,.2l-.1,-.1ZM520.5,184.8l-.8,.3v.5l1.9,3.9l.7,3.9l-.4,2.7l.7,2.3l-.2,1.2l-.5,.6l.2,.1l-.4,1.8l.7,2.2l-.3,2l-1.8,.7l-.6,1.1l3.2,4.7V215l1.7,2.5l1.8,-.3l.3,.4l.3,-.3l3,2l.9,-.3l2,4.1l7.2,1.7l4,3.2l9.2,-4.5L594,245.1v-2.7h5.1V190.5l-1.6,-5.2l1.3,-2.2l.4,-1.6l-.8,-3.7l1.4,-1.5l-.8,-1.8l-4.6,-.3l-1.7,-.9l-2.5,-.2l-.8,-.8l.3,-.8l-.3,-1l-4.7,-1.8h-2.8l-1.1,.8l-1.8,.2l-2.4,1.3l-2.7,2.6l-.7,2.1l1.3,3.7l-.3,1.2l-2.1,2.8l-2.2,1.1l-1.1,.1l-1.9,-.8l-2.5,-2.3l-1.7,-.8L557.2,179l-3.3,-.2l-2,-.9l-1.2,-1.7l-.7,-3l-.7,-1.2l-3.7,-.8L544,170l-3,-.5l-1,-.6l-2.8,.6l-2.5,-.2l-4,-2.1l-.4,3.2l.7,1.1l-3.3,1.7l-.9,1.1l-.7,.1l-.7,1.4l-1.1,.3l-.9,1.3l.8,2.3v1.6l-1.8,2.6l-1.9,.9ZM413.5,311l.7,.8l.5,-.1l.2,.3l-.9,.1l2.6,1.2l.2,.8l.7,.4l2.3,.9l4.8,4.7l5.3,2.9l3.7,1.1l-.4,-2.8l.4,-.1l-.2,-.8l1,-1.3l-.3,-.3v-2.3l-1.7,-.6l-.7,-1.6l-2.6,-.4l-.2,-.7l-.6,-.1l1.2,-1.6l.3,-1.8L428.3,307l-.8,.3l.1,.7l-.9,1.3l-1,.3l-.7,-1l-.5,-.2l-.8,.2l.6,-1.9l-.8,-2.2l.1,-.8l-.8,-.3l-.1,-.5l-.2,.2l-.4,-.5l-1.4,.7l-.1,-.5l-1,.2l-.1,1.3l-1.6,.9v1.4l-3.6,2.9l-.8,1.5Zm258,59l1.1,-.4l1.1,-2.5l-.4,-.2l.6,.1l1.4,-3.4l.7,-.5l.6,-3.1l1,-.7h.9l1.3,-1.3l.5,.1l-.3,-1.4l.2,.2l1.4,-.7l.2,.2l1.5,-1.7l-2.8,-4.2V332l1.7,-1.7l2.9,-4.3l-3.7,.2l-1.9,-1.6l-4.8,2l-1.5,2.4l-2.4,-.7l-.9,.1l-1.1,-.5h-2.9l-5.7,-4l-.9,-.3h-4.4l-.2,-.9l-.7,-.9l.3,-2.6l-1.8,-.5l-.9,.4l-.1,-.9l-6.7,6.6l.7,1.3l-.2,.5l.6,-.1l-.3,.5l1.6,.6l-.4,1l.4,1.5l2.4,3.4l.5,3l-.1,1.3l-1.1,1.3l.2,.7l-1.6,.9l-.4,1.2l-.8,1.1l-.7,.3l-.2,1.2l-.9,1.3l.3,1.2l-.2,4.4l.9,.1l18.1,10.3l.2,1.3l-.7,.6l.2,.5l.6,.1l.3,.6l7.3,5.1ZM681,356.7l-.7,.5l1.1,-.2l-.4,-.3ZM396,289.6l.2,.5h.6l-.3,.2l.4,1.3l.4,-.6l.6,-.1l-.6,1.6l1,.9v.7l.6,-.1l1.1,.9l.4,-.5l.1,.7l1.2,.9l1.2,.3l-.5,1.1l1.2,.9v.6h.5l.3,.7l-.2,.5l1.2,-.1l.6,-.6v-.5l.8,-.2l1.8,-3l1.1,-.2l.4,.3l1.3,-.6l3.5,-.1l1.9,2.9l.9,.8l-.4,1.1l.8,.1l.5,2l-.7,.7l-.3,1l.6,.2l1.2,-1l1.2,-.1l.1,.5l1.4,-.7l.4,.5l.2,-.2l.1,.5l.8,.3l-.1,.8l.8,2.2l-.6,1.9l.8,-.2l.5,.2l.7,1l1.2,-.4l.9,-2.2h.5l.2,.9l.6,.3l-.3,-.5l.3,-.3l1.1,.4l.8,-2.5l.5,.1l-.3,-.9l-1.3,-.2l.3,-1.4h1.3l.3,.4l.5,-.3l.2,.5h.5l-.7,-2l-.9,-.3l.3,-1.1l.8,-.1l-.9,-.7l.3,-1.2l-1,.1l-.4,-.6l.2,-1.6l-.3,-.5l1,-1.4v-.6l-.7,-.2l-.1,-.4l-.6,.1l-.5,-3.4h-.8l-.1,.5l-.8,.1l.6,-1.3l.9,-.4V288l-1.3,-.5l-.4,-.9h-.7l.2,-1.9l-.9,-.9l.2,-.7l-1.1,-.9h-1l.2,1.1l-1.7,.6l-.3,.7l-3.1,-1l-1,.5l-1,1.2l-1.2,-1.7h-.5l-.7,1.1h-.6l-1,-.9l.3,-1.1h.3l-.4,-.2l-3.4,.1l-1.1,.6l-2.8,-1.3l-.4,.5l-.5,-.1v-.8l-3.3,-.2l.3,1.8l-1.5,.7l1.3,1l-.1,1.5l-1.9,.4l-.9,-.2l-1.3,.9l-.7,-.1l-1.3,2.3Zm6.5,6.6l-.6,-.1l.3,.4l.3,-.3ZM397.6,291l-.5,.2v.7l.5,-.9Zm-1.5,-.1v-.3l-.1,.4l.1,-.1Zm-.3,-.8l.3,.1l-.1,-.4l-.2,.3Zm0,0l-.6,.5l.6,.6v-1.1Zm62.4,7.7l-.2,.8l.4,.4l-.7,1l.8,.7l.7,3.7l-.5,.2l-.1,.6l-.9,.5l-.7,1.8l-.1,1.9l-1.4,2.1l-.2,1.1l1.2,4.6h.3l.2,.5l.8,.1l.2,2.3l-2,.2l3.9,.9l1.5,.9l2.3,-1.4l4.2,-1l4.9,-2.7l4,-.4l1.2,-1.7h-.6L477,314l-1.3,-.6l-1.1,-2.1l.6,-2.3l-.7,-1.1l.6,-.9l-.2,-2.6l.7,-.6l-1.8,-2.2l.8,-.7l-.4,-.8l.6,-1.9l-.6,-.5l-1.2,.2l.4,-.3l-.3,-.2l.7,-.1l-.6,-.4l.5,-.1l.2,-3.3l-2.4,-1.7l.5,-2.3l-1.5,-.4l-1.6,1.3l-1.2,-.5H457.5l-.6,2.1l.4,.8l.5,.2l-.4,.5l.4,.3l.2,2.2l-.3,.7l.5,1.1Zm187.3,0l.1,4.6l-2.2,1.1l-.5,-.5l-2.1,.4v1.4l-.8,.6l-.2,.8l1.6,.7l1.8,.1l1.4,.9l.4,1.4l.8,.6l.2,.7l1.2,.4l.5,.9l1.6,.7l.7,.7l-.3,1l.3,1.9l.6,1.4l.9,.6l-.1,.7l1.5,-.2l1.4,.5l-.3,2.6l.7,.9l.2,.9h4.4l.9,.3l5.7,4h2.9l1.1,.5l.9,-.1l2.4,.7l1.5,-2.4l4.6,-2l2.1,1.6h3.4l1.3,-1.2l3.6,-.4l1.3,-1.7l2,-1.1l2.8,-.8l5,.2L716,305.4h-5l-15.4,-5.2l-1.7,-1.7l-.9,-.4l-.8,-.9l-.2,-1.3l-.9,-.3l-1.2,-1.8l-.9,-1.7l1.5,-2l-1.6,-.6l-3,.8l-1.4,-.2l-.1,-2.7l.4,-1.2l.7,-.6l2.1,-3.3l-.9,-1.5l-.8,-.2L684.1,278l-2.8,-2.2l-1.2,-1.9l-3.6,-1.7l-.6,-.7l-.9,.7l-1.7,-1l-.3,.6l-1.4,.4l-.5,-1.3l-1.8,1l-1.8,.3l-.9,-1.4l-1.2,-.2l-.6,-1l-2,3.8L661.7,272l-.9,.2l-.6,.8l-.8,-.4l-1.5,.3l-.6,1.5l.3,.8l-1.8,4.7l.1,1.3l-.8,-.2l-1.6,.3l-2.1,3.8l-1.2,1.1l.2,.9l-.6,1.5v1.9l-.9,1l-1,-1l-1.5,1.6l.2,2.2l-.5,.6l-.6,2.9ZM599.8,176.3l-1.4,1.5l.8,3.7l-.4,1.6l-1.3,2.2l1.6,5.2v41h60.4l.1,-.4l-2.3,-1.5l-.9,-1.5l-1.8,-.5l-1.1,-1.2l-1,-3l-.1,-2.5l1.4,-.2l-.8,-.3l-2.3,-2.8l-2.6,-6l-3.6,-6.2l.3,-1.1l-.8,-1.4V202l-.7,-.4l-.9,-1.7l.2,-.7l-.4,-.5h.6l-3.7,-4.3l-.3,-1.1l-.9,-1.2l.2,-.6l-.4,-1.5l-1.3,-1.4l.8,-1.4l-.1,-.7l.5,-.1l.9,3l2.2,2.6l.2,2.4l3.1,3.5l2.1,1.5l-.2,-.4l1.2,-1.3l-.1,-1.8l1.1,-2.3l.6,-3.4l.8,-1.1L646,178.3l-2.6,1.2h-1.3l-1.6,.5l-.3,-.8l-.4,.8l-.3,-.3l-1.2,.4l-3.2,-2l-.8,-1l-1.8,.5l-2.7,-.9l-2.6,.8l-.8,-.1l-.6,1.1l-.9,-.1l-3.1,2.3l-2,.6l-3.2,-1.6l-2.7,-.1l-.2,-.8l-1,.4l-1.2,-.2l-.5,-1l-7.4,-1.5l-3,.7l-.6,-.1l-.2,-.8Zm44.7,24.2l.3,.2l.2,-.1l-.5,-.1Zm-.6,-.3l-.3,-.2l.1,.3l.2,-.1Zm-.4,-.6h-.2l.1,.2l.1,-.2ZM534,375.7l1,1.1l.4,-.1l-.2,.5l1.2,-.3l1.1,-.9l2.3,.4l3.3,-.4l3.2,.4l10,-.1v.7l.7,.7l-.3,1.1l.5,1.7l1,1.8l-.1,.9l1.2,1l1.6,3.3l.6,.3l2.5,-.2l.6,-.6l1.6,.1v-.4h1.2l.1,.4h3l-.1,-2.1l.6,-.1l.3,-.6l-.3,-.7l.3,-1.6h3.9l.1,-.5l1.5,.1l-.3,1.9l6.2,-.1l.4,1.4l-.5,2l1,2.9l-.8,4.7l.4,1.2l1.5,1.4l.8,2.4v1.9l-.8,.6l.4,2.1l1.5,-1.2l.8,.4l2.5,-.1l1.2,-.8l2.2,.5l1,-.8l.5,.8l1.1,.3l.1,.9l-.5,.6l.6,.3l.9,.1l1.4,-1l2.5,-.4l-.4,.9l.3,1.4l.8,.3v.5l.8,-.3l.3,.4h.9l.5,.7l4.6,.2l.6,-.7l.1,-1.2l1,-.2v1.1l1.3,.8l.2,1.2l.6,.5L614,409l.2,.7l1.8,.3l.6,.5l.6,2l.5,-.4l.7,.7l1,2.3l.6,-.2l.4,.4l2,-1.2l.5,.3l-.4,.7l1.1,.2v-6.8l-1.7,.6l.2,.9l-.2,.2l-1.1,-.5l-1.2,.1l-1.4,-2.1l-1.6,-.9l-.3,-1.3l.5,-2.4l.6,-1.9l.5,-.3l-.6,-2.3l.6,-2.2l-.8,-2.4l1.8,-3l.3,-1.5l9.5,-1.1l-2.1,-3.5l-.7,-2.8l-3.1,-2.9l-.7,-1.3l.8,-3l-1.4,-3.2l-.1,-4.2l-.8,-2.4l.1,-3.3L619,359.9l-.3,-1.3l1.3,-.9l.7,-3l1.7,-1.4l-.1,-2.2l.4,-.3l.2,-2.2l-.5,-.8l.7,-.6V346l1.1,-1.6l-.3,-1.4l.3,-.8l1.1,-.4l.4,-1.2l1.9,-1.2l3.1,-3.1l.6,-1l-1.4,-1.2l-.5,-.1l-.2,.3l-.9,-.5l.8,-2.2l-.7,-.9l.9,-2.2h-.4l-.6,-1l-1,.4v-1.2l-1.7,-.5l-.2,-.8L623.5,324l.2,-.8l-.4,-.3l-1.3,-.5l-1.3,1.7l-1.1,-.6h-1l-.2,-.5l-.7,.9l-1.3,.6l-1.8,-.9l-.1,-.5l-1.2,-.1l-.1,-.9l-.6,-.6l-.4,.1l-.7,-1.2l-1.6,-.6l-1,.3l-.3,.5l-.6,-.3l-1.2,.2l-2,-1l-1.1,.4l-1.9,-.9l-1,.5l-.1,1.2h-.8l-.5,.5l-.5,-.3l-1.2,.4l-1,-.9l-.8,-.2l.1,.5l-1.2,.6l-2.9,.7l-1,.9l-2.2,-1.3l-1,.8l-.4,1.1l-.4,-.1l-.3,1.4l-1.5,.5l-2.6,-.9h-2.6l-1.7,-.8l-1.6,.2L575.3,322l-2.5,-1.7l-2.1,-.1l-1.8,1.2l-1.5,2.4l-1.1,.3l.5,1.9l-.4,1.1l.3,2.8l-2.8,5v3l-1.3,3.7l.6,2.6l-1.4,2.9l.2,1.9l-1.8,2.1l-1.4,.6l-1.4,1.2l-1.3,2.7l-1.7,1.6l-.2,1l.2,4.9l-1.6,3.1l-1.8,.7l-.6,1.2l-1.1,.2l-1.9,2.5l-.8,.5l-1,-.3l-.4,.2l-.2,-1.7l.6,-.6l-.5,-.8l-2.3,1.2l-.8,-.5l-.5,1.8l-.7,-.1l-.6,.8l-1.6,-1.6l-.1,.5l-1.2,.3l-.7,1l-1.3,.7l.3,.3v3.1l-1.6,.1Zm3.7,.5h-.6l-.1,.5l.7,-.5Zm-2.3,.6l-.4,.1h.4v-.1Zm-6.8,-10.4l3.3,3.1v.7l1.1,1.7l1,-1.3l.6,.1l.3,-1l1.9,-.5l-.1,-.7l.8,.2l.8,1.2l.4,-.2l1.5,1.6l.6,-.8l.7,.1l.5,-1.8l.8,.5l2.3,-1.2l.5,.8l-.6,.6l.2,1.7l.4,-.2l1,.3l.8,-.5l1.9,-2.5l1.3,-.4l.4,-1l1.7,-.5l1.7,-3.3l-.2,-4.9l.2,-1l1.7,-1.6l1.3,-2.7l1.4,-1.2l1.4,-.6L562,349l-.2,-1.9l1.4,-2.9l-.6,-2.6l1.3,-3.7v-3l2.8,-5v-1.3l-.5,-.6l-.2,-.3l-1.2,.3l-.4,.6l-.4,-.5l-1.3,.1l-.1,-.4l-1.9,-.4l-1.2,.7l-1.7,-.1l-1.6,.5l-.3,3.2l-1.7,3.4h-.5l-.2,1.1l.5,1.4l-.4,.3l-.2,-.6l-.7,-.1l-.6,-.6l-1.4,-.4l-.7,.4l-.8,-.7l-1.4,.2L546,335l-.7,.3l-5.8,-.1l-.8,2.4l.6,2l-.3,.5l1.8,-.3l1.4,-.8l1.9,.2l1.5,2.4l-.5,1.4l-1.5,.5l-1.1,1.8l.6,1.1l-.4,.7l.2,.5l1,.2l.1,.8l.8,-.1l1,.9l-.5,1.6l.1,2.1l.4,.4l-.2,.7l-.5,.3l.2,1.4l-.9,.5l.1,.8l-.6,.4l.5,.6l-.7,.9l-1.2,-.2l.2,-.6l-.9,-1.2l-1.3,1.6l-2.4,-.6l-.8,-1.9l-1.3,-.7l-.8,.5l.3,2.6h-2.3l-.5,-.4l-1.1,.6l-.8,-.6l.4,1.4l-.6,1.2l.6,-.2l.7,1l-.3,.5l1.3,.8l-.7,1.5l.4,.6l-.4,.3l-1.4,-1.6h-.4l-.2,.8l-1.2,.7l-.4,1.2ZM548.2,226l1,5.5v2.8l2.2,2.9l-.5,.4l.3,.6l2.1,2.3l-1.3,2.3l-.8,6.3l-.5,10l-5.7,6.2l-2.6,3.6l-.3,1.7l-.6,.4v.5l-1.1,.7l.9,3.7l2.2,3.3h1.9l.5,.6v.9l1.5,.8l.2,2.4l.8,.3l.1,1.3l.3,.3l-.4,4.2l.6,2.4l1.8,2.2l.9,.6l-1.3,.3l-2.2,-.4l-1,.4l-1.4,-.4h-1.5l-1.2,1.9l3.9,4.3l.6,-.1l.5,.7l1.2,.4l.8,2.9l1.1,1.6l-.4,1.1l1.5,.4l3,-1.2l.2,-.7l.5,-.2l1.4,1.6l4.3,-2.3l4.9,-.3l.3,-.9l.8,-.3l1.5,-2l-1.4,-.9l.3,-.4l.9,-.5l1.9,.1l3.3,-.8h1.7l.5,-.9l.6,.1v-.4l1.3,-.7l.4,-1.1l1.3,-1.3l.5,.1l.9,-1.3l.8,-.1l.5,-1l-.3,-1l.6,-1.1l3.5,-.9l1.8,.4l.5,-1.9l-.2,-.6l-.8,.1l-1.1,-1.2l.4,-2.2h-.9l-.4,-2l.3,-1l-1.3,-.6l-.3,.4l-1,.2l-.6,-1l.5,-1.2l1.8,-1.5l-.9,-2.3l2.5,-2.1l-.8,-.6l.1,-1l-.3,-.1l.1,-.5l1.6,-.5l-.2,-.9l1.6,-1.9l-.4,-1.7l1,-.9l1.1,.1l1.3,-.4l2.1,.4V245.1L553.3,223.5l-5.1,2.5Zm-32.6,95.8v1l-.5,.5l1,.2l-.2,-.9l.6,.6l-.1,-.6l.4,-.2l1,3.2l1.3,.5l.9,-.3l.1,-.5l.5,.6l.6,-.3l-.3,.6l.7,-.1l-.5,.3l.2,.7l-.6,.1l.2,.8h.5l-.4,.3l1.1,1l.5,1.3l-.8,2.9l.2,1.4l.7,.3h7v-.6l1.7,-.1l5.3,.5l2.1,-.3h.5l.2,.5l5.8,.1l.7,-.3l1.8,1.1l1.6,-.1l.6,.6l.7,-.4l2.7,1.1v.5l.6,-.2l-.5,-1.4l.2,-1.1l.6,-.1l-.6,-1.2v-2.3l-1,-1h-.4l-2.8,-3.1l-1,-1.6l.6,-.2l-.5,-1.2l-1.8,-1.6l-.2,-2.9l-.8,-.5l.5,-1.2v-1.9l-.7,-.2l-.3,-.8l1.6,-.9l2.4,-4.3v-.7l1.8,-1.9l.1,-.7l-1.1,-1.6l-.8,-2.9l-1.2,-.4l-.5,-.7l-.6,.1l-1.4,-1.2l-.5,-1.3l-1.5,-1.2l-.4,-.9l1.1,-1.6h1.5l1.4,.4l1,-.4l2.2,.4l1.3,-.3l-.9,-.6L549,292.4l-.6,-2.4l.1,-2.1l.4,-.8l-.4,-.8l.1,-1.5l-.2,-.6l-.8,-.3l-.2,-2.4l-1.5,-.8v-.9l-.5,-.6h-1.9l.5,3.4l1.5,.3l1.1,1l-.7,2.3l.5,.4l-.1,.7l-2.5,1.4l-.8,-.3l-1.4,1.7l-.9,1.8l.2,.6l-.6,1.8l-1,.6l-.1,.7l.4,.4l-.4,1.3l-1.8,1l.1,1.4l-.5,1.9l-2.8,1.6l-.1,2.2l-.9,1.5l-.1,1l-1.1,1.2l.1,1.2h-.6l-.8,1l-.2,1.3l-.9,.5l-1.3,-.2v-.7l-.9,-.1l-.5,-.8l.1,-.4l-1.3,-1.1l-.4,1.2l-1.4,.1l-.4,-.6l-1.3,1.3l-.6,-.1l-.3,1.4l-1.3,.3l-.1,.7l-.5,-.2l-.3,.8l-2.1,1.8l-.1,.8l.4,.6l-.6,2l-1.1,1.9Zm5.4,5l-.3,.1l.4,.3l-.1,-.4Zm-.7,-.9l-.2,.1l.3,.1l-.1,-.2Zm-.9,.4l.7,.1l-.3,-.5l-.6,.2l.2,.2ZM516.9,323l-.4,-.4l.5,.7l-.1,-.3Zm-1.5,-.3l.1,-.2l-.4,.3l.3,-.1Zm104.2,37.6l-.2,.2l1.3,1.3l-.1,3.9l.8,1.8l.1,1.3l1.8,.2l2.4,-2.1l.1,-.8l.8,-.6l.2,-1.1l1.1,-.6v-.6l.9,-.3v-1.5l-.9,.1l-.5,-.5l-.3,.3l-.3,-.2v-.8l.4,-.3l-.5,-.2l.6,-1.2l-.7,-.6l-1.4,.7l-.9,-.6l-.2,1.9l-1.1,.6l-1.7,.1l-.2,-.9l-1.3,-.3l-.2,.8ZM443.8,292.9l.8,.8l1.2,-.1l.3,1l.5,.3v.8l1,.3l-.2,.3l.6,.5l.9,-.4l.1,.6l.9,.2l.2,-.7l.8,-.6l.4,.3l2.1,-.8l1.6,.2l.2,.3l.5,-.4v.5l.9,.5l1.2,1.7l.4,-.4l-.5,-1.1l.3,-.7l-.2,-2.2l-.4,-.3l.4,-.5l-.5,-.2l-.4,-.8l.6,-2.1h10.2l1.2,.5l1.6,-1.3l3.9,.8l.1,.5l2,-.4l.4,-.5l.6,.2l.3,-1.2h.9l.3,-.9l1,.3l2.2,-.1l1.4,-1.3l.5,-1.2L482.4,283l1,-.7l-.8,-1.3l-.6,-.1l-.6,.7l-1.5,-.1l-2.3,-1.9H477l-.1,-2l1.5,.1L475.8,276l-.8,-.1L473.8,274l.1,-1l-1.2,-1.5l.3,-2.4l-.9,.1l-1.5,-.5l-.7,.4l-.3,-.5h-1.4l-1.7,1.6l-1.3,.3l-2.4,1.4l-1,-.1l-.1,1.5l-.5,.3l-1.9,-.8l-1.9,1.3l-.1,2.1l-.8,.2l-.4,-.4h-.7v2.1h-1v.7l-1.8,-1.2h-.8V277l-.7,.5l-.9,.9l.2,.2l-.6,.2l.6,.9l-.1,1.3l-1.2,.1l.6,.9l-.4,.6l.2,.6l-.4,-.1l-.8,1.4l-2.5,.5l-1.2,.8l.5,.4l-.1,.5l.4,1l-.6,1.5l-.9,.4l.4,1.3l-.5,2ZM573.6,476.4l2,1.5l.7,1.6l.7,.7l-.1,1.1l.9,1.3l.2,1.5l-1.3,2.2l.4,2l1,-.4l1.3,.4h2.9l.4,-.4v-.7l1.4,-.2l1,-1.7l1.1,-.8l.4,.1l.9,-1.1L588,481l.9,-1.5l2.4,-.2l2.2,2l1.5,-.1l.9,.8l1.6,.4l1.8,-.6l1.4,.3l1,-.5l1.9,-4.5l-.2,-.7l2.8,-.7l1,-1.3l1.3,-.8l.6,-3.1l.5,-.2l.3,-.7l1,-.8l1,-.1l.4,-.9l.7,.1l3.1,-3.7l.8,.1l2.1,-.7l.6,-1.3l1.7,-.1l-.6,-.8l-.9,-.1l-.3,-.5l.3,-.8l-.4,-.2l-2.1,-.8l-.4,.3l-2.5,-.6l-.5,-1.3l-1.1,-1.3l.1,-3.1l-2.2,-.1l-.4,-2.3l-2.4,-.7l-2.1,-1.5l-.1,-.5l-.7,-.2l-1,-2.4l.1,-.7l-3.4,-4.8l-.3,-1.5l-1,.3l-.5,-.3l-1.2,.6l-.8,.9l-.7,-.6l-1.2,.3l-3,2.6l-.5,-1.4l-1.3,-1.3l-9.2,1.7h-2.3v20h-5.1v15.3ZM476.5,290l-.7,3.1l3,2v2.7l1.4,2.3l.2,7.9l-.2,2.6h-.4l.1,1.6L481,314l-.8,.5l5.5,-.7l.4,-1.7l-.4,-1.2l.4,-.5l-.2,-2h.2l-.6,-2.4l.4,-1.5l-.3,-.9l.4,-3.7l1.6,-.1l.3,-1.9l1,-1.1l-.1,-.6l1.4,-.8l.4,-1.1l-.5,-.7l.3,-.7l.8,.1l.3,-.9l-.6,-2.8l-1.4,-1.7l.7,-1.2l-4,-3.7l-.6,.6l-1.6,.2l.4,1.2l-.4,1.1l-1.8,2l-2.2,.1l-1,-.3l-.3,.9h-.9l-.3,1.2l-.6,-.2l-.4,.5ZM427.8,201.7l19.5,13.2l30.5,21.4l.1,2.2l.7,-.1l1.4,.8l1,1.6l.7,.4l1.8,-.4l.5,1.3l1.6,-.1l.4,.5l2.5,.8v2.1l-.7,1.7l1.4,.9l12.3,-2.6l8.4,-7.6l23,-14.7l-2,-4.1l-.9,.3l-2.7,-2l-2.7,.2l-.7,-.7l-1,-1.8v-2.2l-3.2,-4.7l.6,-1.1l1.8,-.7l.2,-.8l.1,-1.2l-.7,-2.2l.4,-1.8l-.2,-.1l.5,-.6l.2,-1.2l-.7,-2.3l.4,-2.7l-.7,-3.9l-1.9,-3.9v-.5l.8,-.3L518,173.7l-3.6,-2.4l-.2,-2L513,167.9l.1,-.2l-1.8,-1v-1l-1.1,-2.3v-1.6l.6,-.8l.8,-.1l.3,-1.3l1.5,-.9l.7,-1.1l-.2,-1.1l1,-1.9l-.7,-.6l.3,-.9l-.6,-2.6l.8,-3.4l-1.3,-.4l1.5,-.9l-.1,-.9l1.2,-.3l-.1,-.8l-1.1,.3l-1.1,-.4l-1.9,.7l-.4,-.2v-.5l-2.8,-.9l.2,.4l-.5,.7l-1.2,.3l-2.6,-1.3l-.7,.3l-.2,.7l-2.8,.7l-1.6,1.1l-1.1,-.2l-.2,-.7l-1.6,-.7l-4.6,-.2l-2.1,1l-1.3,-.3l-.3,.4l-1.3,-.4l-1.8,1.4l-1.1,-.3l-1.8,.5l-3.3,.1l-5.1,2.2l-2.2,2.5l-.9,-.1l-.3,-.5h-.7l-.9,1.1l-.9,-.3l-1,.5l-.9,.8l-.4,1.2l-2.5,1.5l-2.3,.2l2.4,2.2l-.5,.7l.7,.9l-.4,.5l.7,1.8l-.3,2.4l.6,1.1l-.4,1.5l1,1.3l-.4,.7l.8,1.2l1.9,1.5l-1.2,1.6l-.1,.5l.6,.3l-.5,.2l-3.9,-.5l-4.4,.3l-.2,.5l.5,1.4l-4.2,1l-.1,1.4l-.6,.6l.1,1l.3,-.3l.9,1.1l-1.2,1.3l-.3,1l-2.5,.6l-4.2,3l-1.7,1.9l-.4,1.1l-.4,.2l-.3,-.6l-.3,.1l.2,-.3l-2.4,.7l-1,-.4l-1.9,.4l-2,-.3l-1,.7l-1.3,.1l-5.4,3.8v8.1Z" class="g1"/>
<path d="M600.4,438.3l-.1,.6l.4,.9l3.4,4.8l-.1,.7l1,2.4l.7,.2l.1,.5l2.1,1.5l2.4,.7l.4,2.3l2.2,.1l-.1,3.1l1.1,1.3l.5,1.3l2.5,.6l.4,-.3l2.1,.8l.4,.2l-.3,.8l.3,.5l.9,.1l.6,.8l1.5,-.4L626,463l2.8,-.3l1.6,.2l.8,.5l5.9,-6.2l-.5,-1l.7,-1.1l-.1,-1.5l.9,-.4l1,-1.5v-.9l.8,-.6l.1,-1.3l-.4,-.6l-.6,.2v-1.1l-.4,-.1l.5,-2l-.2,-.4h-.6v-1.1l1.1,-.3l-.2,-1.3l.7,-.3l.1,-.6l-.5,-1.8l.5,-2l-.4,-.8l.4,-.7l-1,-2.3l.4,-.2l.3,-1h-1.2l-.2,-.5l-2.2,-.9l-1.8,-.1l-1,-1.1l-1.4,-.3l-.8,-.8l-.8,-.1l-.7,.4l-.4,-.3h-2.5v-2l-1.1,.2l-2,-.3l-1.9,.4l-2.5,1.4l-.5,.5l-.3,2.4l-5.1,2.7l-.9,1.8l-1.8,1.6l-1.1,1.7l-1.8,.6l-2.4,-1l-1.3,.6l-1.5,-1l-.8,.3l-1.3,-.4Z" class="g2"/>
<path d="M600.4,438.3l-.1,.6l.4,.9l3.4,4.8l-.1,.7l1,2.4l.7,.2l.1,.5l2.1,1.5l2.4,.7l.4,2.3l2.2,.1l-.1,3.1l1.1,1.3l.5,1.3l2.5,.6l.4,-.3l2.1,.8l.4,.2l-.3,.8l.3,.5l.9,.1l.6,.8l1.5,-.4L626,463l2.8,-.3l1.6,.2l.8,.5l5.9,-6.2l-.5,-1l.7,-1.1l-.1,-1.5l.9,-.4l1,-1.5v-.9l.8,-.6l.1,-1.3l-.4,-.6l-.6,.2v-1.1l-.4,-.1l.5,-2l-.2,-.4h-.6v-1.1l1.1,-.3l-.2,-1.3l.7,-.3l.1,-.6l-.5,-1.8l.5,-2l-.4,-.8l.4,-.7l-1,-2.3l.4,-.2l.3,-1h-1.2l-.2,-.5l-2.2,-.9l-1.8,-.1l-1,-1.1l-1.4,-.3l-.8,-.8l-.8,-.1l-.7,.4l-.4,-.3h-2.5v-2l-1.1,.2l-2,-.3l-1.9,.4l-2.5,1.4l-.5,.5l-.3,2.4l-5.1,2.7l-.9,1.8l-1.8,1.6l-1.1,1.7l-1.8,.6l-2.4,-1l-1.3,.6l-1.5,-1l-.8,.3l-1.3,-.4Z" class="g3"/>
<path d="M594,402l.4,2.7l-.5,1.5v2.5l.5,1l-.6,.8l-.4,1.7l.8,.8H583.8v16.8l1,1.9l4.8,4.9l1.5,.9l4.9,-.9l3,.4l1.8,1.6l1.7,-.2l1.5,1l1.3,-.6l2.4,1l1.8,-.6l1.1,-1.7l1.8,-1.6l.9,-1.8l5.1,-2.7l.3,-2.4l.5,-.5l1.9,-1.2l2.5,-.6l3,.2l-.1,-1.5l-.6,-.7l-.2,-1.2l15.2,-5.2l-.3,-.5l-.7,.7l-.4,-.9l-.9,-.5l.2,-.7l-.6,-.2l.8,-.5l.9,-1.6v-1.5l-.4,-.8l.5,-.8l1.7,-.3l.9,-1l-.9,-.1l-.6,-1.1l.4,-1.7l-.1,-1.1l-.5,-.2v-.7l.4,.1l.6,-1.5l-.8,-1.5l1,-.2l1.1,-1.1l-.6,-1.2v-.8l-1.1,-.8l.2,-1.1l-.8,-1.2l-.5,-.1l-.1,.4l-.5,-.3l-.2,-1.2l-2.1,-.7l-.6,-.7l-2.4,-.3l-.1,-.7l-1.3,-.1l-.7,-1.1l-.8,-.4H630l-1.3,-1.9l-9.5,1.1l-.3,1.5l-1.8,3l.8,2.4l-.6,2.2l.6,2.3l-.5,.3l-.6,1.9l-.5,2.4l.3,1.3l1.6,.9l1.4,2.1l1.2,-.1l1.1,.5l.2,-.2l-.2,-.9l1.7,-.6v6.8l-1.1,-.2l.4,-.7l-.5,-.3l-2,1.2l-.4,-.4l-.6,.2l-1,-2.3l-.7,-.7l-.5,.4l-.6,-2L616,410l-1.8,-.3L614,409l-1.5,.2l-.6,-.5l-.2,-1.2l-1.3,-.8v-1.1l-1,.2l-.1,1.2l-.6,.7l-4.6,-.2l-.5,-.7h-.9l-.3,-.4l-.8,.3v-.5l-.8,-.3l-.3,-1.4l.4,-.9l-2.5,.4l-1.4,1l-.9,-.1l-.6,-.3l.5,-.6l-.1,-.9l-1.1,-.3l-.2,-.7L594,402Z" class="g2"/>
<path d="M594,402l.4,2.7l-.5,1.5v2.5l.5,1l-.6,.8l-.4,1.7l.8,.8H583.8v16.8l1,1.9l4.8,4.9l1.5,.9l4.9,-.9l3,.4l1.8,1.6l1.7,-.2l1.5,1l1.3,-.6l2.4,1l1.8,-.6l1.1,-1.7l1.8,-1.6l.9,-1.8l5.1,-2.7l.3,-2.4l.5,-.5l1.9,-1.2l2.5,-.6l3,.2l-.1,-1.5l-.6,-.7l-.2,-1.2l15.2,-5.2l-.3,-.5l-.7,.7l-.4,-.9l-.9,-.5l.2,-.7l-.6,-.2l.8,-.5l.9,-1.6v-1.5l-.4,-.8l.5,-.8l1.7,-.3l.9,-1l-.9,-.1l-.6,-1.1l.4,-1.7l-.1,-1.1l-.5,-.2v-.7l.4,.1l.6,-1.5l-.8,-1.5l1,-.2l1.1,-1.1l-.6,-1.2v-.8l-1.1,-.8l.2,-1.1l-.8,-1.2l-.5,-.1l-.1,.4l-.5,-.3l-.2,-1.2l-2.1,-.7l-.6,-.7l-2.4,-.3l-.1,-.7l-1.3,-.1l-.7,-1.1l-.8,-.4H630l-1.3,-1.9l-9.5,1.1l-.3,1.5l-1.8,3l.8,2.4l-.6,2.2l.6,2.3l-.5,.3l-.6,1.9l-.5,2.4l.3,1.3l1.6,.9l1.4,2.1l1.2,-.1l1.1,.5l.2,-.2l-.2,-.9l1.7,-.6v6.8l-1.1,-.2l.4,-.7l-.5,-.3l-2,1.2l-.4,-.4l-.6,.2l-1,-2.3l-.7,-.7l-.5,.4l-.6,-2L616,410l-1.8,-.3L614,409l-1.5,.2l-.6,-.5l-.2,-1.2l-1.3,-.8v-1.1l-1,.2l-.1,1.2l-.6,.7l-4.6,-.2l-.5,-.7h-.9l-.3,-.4l-.8,.3v-.5l-.8,-.3l-.3,-1.4l.4,-.9l-2.5,.4l-1.4,1l-.9,-.1l-.6,-.3l.5,-.6l-.1,-.9l-1.1,-.3l-.2,-.7L594,402Z" class="g3"/>
<path d="M628.9,328.5h.4v.4l-.9,1.8l.7,.9l-.8,2.2l.9,.5l.2,-.3l.5,.1l1.4,1.2l-.6,1l-3.1,3.1l-1.9,1.2l-.4,1.2l-1.1,.4l-.3,.8l.3,1.4l-1.1,1.6v1.2l-.7,.6l.5,.8l-.2,2.2l-.4,.3l.1,2.2l1.3,-.3l.4,.9l1.3,-.7l.9,-1.5h1.6l.6,-.4l16.1,.1l.2,-4.4l-.3,-1.2l.9,-1.3l.2,-1.2l.7,-.3l.8,-1.1l.4,-1.2l1.4,-.6v-1l1.1,-1.3l-.4,-4.3l-2.4,-3.4l-.4,-1.5l.4,-1l-1.6,-.6l.3,-.5l-.6,.1l.2,-.5l-.7,-1.3l-2.4,2.4l-1.6,-.1l-.9,-.6l-1.5,.6l-1.6,.1l-1.2,1.2l-1.1,-.3l-.7,-1.2l-1.6,.9l-1.1,-.8h-.6l-1.1,.5l-.5,1Z" class="g4"/>
<path d="M628.9,328.5h.4v.4l-.9,1.8l.7,.9l-.8,2.2l.9,.5l.2,-.3l.5,.1l1.4,1.2l-.6,1l-3.1,3.1l-1.9,1.2l-.4,1.2l-1.1,.4l-.3,.8l.3,1.4l-1.1,1.6v1.2l-.7,.6l.5,.8l-.2,2.2l-.4,.3l.1,2.2l1.3,-.3l.4,.9l1.3,-.7l.9,-1.5h1.6l.6,-.4l16.1,.1l.2,-4.4l-.3,-1.2l.9,-1.3l.2,-1.2l.7,-.3l.8,-1.1l.4,-1.2l1.4,-.6v-1l1.1,-1.3l-.4,-4.3l-2.4,-3.4l-.4,-1.5l.4,-1l-1.6,-.6l.3,-.5l-.6,.1l.2,-.5l-.7,-1.3l-2.4,2.4l-1.6,-.1l-.9,-.6l-1.5,.6l-1.6,.1l-1.2,1.2l-1.1,-.3l-.7,-1.2l-1.6,.9l-1.1,-.8h-.6l-1.1,.5l-.5,1Z" class="g3"/>
<path d="M515.9,143.8l.1,.8l-1.2,.3l.1,.9l-1.5,.9l1.3,.4l-.8,3.4l.6,2.6l-.3,.9l.7,.6l-1,1.9l.2,1.1l-.7,1.1l-1.5,.9l-.3,1.3l-.8,.1l-.6,.8v1.6l1.1,2.3v1l1.8,1l-.1,.2l1.2,1.4l.2,2l3.6,2.4l2.5,11.1l1.9,-.9l1.8,-2.6v-1.6l-.8,-2.3l.9,-1.3l1.1,-.3l.7,-1.4l.7,-.1l.9,-1.1l3.3,-1.7l-.7,-1.1l.4,-3.2l-2,-.2l-.6,-2.5h-.6l-.1,.5l-.8,.4l-.4,-.4l.2,-1.1l-1.2,.5l-.7,-.5l-1.3,-1.4l-.3,-1.1l.5,-1.2l3,-2l2.1,-3.8l-.5,-.7l.1,-1.6l-.9,-.4l-.3,-.6l-.8,-.2l-1,-2.3l.6,-1.4l1.2,-.4l1.6,-2.6l-.5,-1.3l-2.3,1.4l-.2,.6l-.9,.2l-.4,-.4l.2,-.8l-.6,-.4l-.4,-1l.7,-.2l-1,-.6h-.9l.1,.7l-.5,.1l-.1,-.6l.5,-.2l-.1,-.4l-.6,-.1l-2.8,.8l-1.9,1.6l-.9,.2Z" class="g5"/>
<path d="M529.1,157l-.6,1.1l.9,-.6l-.3,-.5Z" class="g5"/>
<path d="M528.3,158l-.6,.1l.4,.3l.2,-.4Z" class="g5"/>
<path d="M526.6,163.2l-.1,.7l.5,-.1l.2,.5l1,-.8l-.6,-.6l-1,-.1v.4Z" class="g5"/>
<path d="M515.9,143.8l.1,.8l-1.2,.3l.1,.9l-1.5,.9l1.3,.4l-.8,3.4l.6,2.6l-.3,.9l.7,.6l-1,1.9l.2,1.1l-.7,1.1l-1.5,.9l-.3,1.3l-.8,.1l-.6,.8v1.6l1.1,2.3v1l1.8,1l-.1,.2l1.2,1.4l.2,2l3.6,2.4l2.5,11.1l1.9,-.9l1.8,-2.6v-1.6l-.8,-2.3l.9,-1.3l1.1,-.3l.7,-1.4l.7,-.1l.9,-1.1l3.3,-1.7l-.7,-1.1l.4,-3.2l-2,-.2l-.6,-2.5h-.6l-.1,.5l-.8,.4l-.4,-.4l.2,-1.1l-1.2,.5l-.7,-.5l-1.3,-1.4l-.3,-1.1l.5,-1.2l3,-2l2.1,-3.8l-.5,-.7l.1,-1.6l-.9,-.4l-.3,-.6l-.8,-.2l-1,-2.3l.6,-1.4l1.2,-.4l1.6,-2.6l-.5,-1.3l-2.3,1.4l-.2,.6l-.9,.2l-.4,-.4l.2,-.8l-.6,-.4l-.4,-1l.7,-.2l-1,-.6h-.9l.1,.7l-.5,.1l-.1,-.6l.5,-.2l-.1,-.4l-.6,-.1l-2.8,.8l-1.9,1.6l-.9,.2ZM529.1,157l-.6,1.1l.9,-.6l-.3,-.5Zm-.8,1l-.6,.1l.4,.3l.2,-.4Zm-1.7,5.2l-.1,.7l.5,-.1l.2,.5l1,-.8l-.6,-.6l-1,-.1v.4Z" class="g3"/>
<path d="M471.2,289.3l.8,.3l-.5,2.2l2.4,1.7l-.2,3.3l-.5,.1l.6,.4l-.7,.1l.3,.2l-.4,.3l1.2,-.2l.6,.5l-.6,1.9l.4,.8l-.8,.7l1.4,1.3l.4,1l-.7,.5l.2,2.6l-.6,.9l.7,1.1l-.6,2.3l1.1,2.1l1.3,.6l1,1.1l3,-.8l-1.1,-2.1l-.1,-1.6h.4l.2,-2.6l-.2,-7.9l-1.4,-2.3v-2.7l-3,-2l.7,-3.1l-2,.4l-.1,-.5l-3.2,-.6Z" class="g6"/>
<path d="M471.2,289.3l.8,.3l-.5,2.2l2.4,1.7l-.2,3.3l-.5,.1l.6,.4l-.7,.1l.3,.2l-.4,.3l1.2,-.2l.6,.5l-.6,1.9l.4,.8l-.8,.7l1.4,1.3l.4,1l-.7,.5l.2,2.6l-.6,.9l.7,1.1l-.6,2.3l1.1,2.1l1.3,.6l1,1.1l3,-.8l-1.1,-2.1l-.1,-1.6h.4l.2,-2.6l-.2,-7.9l-1.4,-2.3v-2.7l-3,-2l.7,-3.1l-2,.4l-.1,-.5l-3.2,-.6Z" class="g3"/>
<path d="M621.5,368.8v2.9l1.4,3.2l-.8,3l.7,1.3l3.1,2.9l1.1,3.6l2.4,3.9l.6,.7h1.6l.8,.4l.2,.7l.5,.4l1.3,.1l.1,.7l2.4,.3l.6,.7l2.3,.5l.8,.7h.8l.7,.6l1.6,-.1l.8,.6l.6,-1.1l2.5,3l.2,2.4l.5,1.1l-.3,1.6l1.6,1.8l.2,.9l3.5,-.1l.9,-.8l1.5,.6l.5,1l2.1,.1l.8,-.9l3.2,.7l1.6,-.7l.9,-1.5l1.8,.1l.9,.7l2.2,-1.3h2l1.4,-1l2.2,-.8l2.3,-1.8l-.1,-.9l-.4,.3l-.5,-.8l-.1,.4l-.4,-.2l-.1,-.4l-2.1,-1l.5,-.7l-1,-2.2v-1.8l-.3,-.2l.1,.3l-.5,.1v-1l-.4,-.1l.7,.1l-.9,-1.2l-.4,-1.9l.4,-.1l.5,-1.5v-.9l-.8,-.5l-.1,-.6l1.4,-2.9l-.3,-.7l-1.1,-.6l-1,-1.4l-1,-.6l-.5,-1.8l1.8,-4.7l-.1,-1l.5,-.4l.1,-1l-7.3,-5.1l-.3,-.6l-.6,-.1l-.2,-.5l.7,-.6l-.2,-1.3L645.5,351.5l-17,-.2l-1.6,.4l.5,1.4l.9,.4l-.1,.5l.6,.6l-.2,1.5l.5,.8l-.4,1.4l-1.4,.3l-.6,1.2l.5,.2l-.5,.7l.3,.6l.4,-.3l.5,.5l.9,-.1v1.5l-.9,.3v.6l-1.1,.6l-.2,1.1l-.8,.6l-1.1,1.9l-1.1,.5l-.3,.5l-1.8,-.2Z" class="g2"/>
<path d="M674.9,385.3l-1.4,1.7l1.1,-.3l.3,-1.4Z" class="g2"/>
<path d="M673.9,373.2l-.4,.6l.6,.3l.5,-.9l.2,-1.9l-1.1,.2l.4,1l-.2,.7Z" class="g2"/>
<path d="M674.4,387h-.2l.1,.3l.1,-.3Z" class="g2"/>
<path d="M671.3,377l.1,1.1l.4,.4l.1,-.4l1.1,1.2v-1.5l-.5,-.2l-.6,-2.1l-.2,.7l-.5,.2l.1,.6Z" class="g2"/>
<path d="M673,392.1h-.2l.1,.2l.1,-.2Z" class="g2"/>
<path d="M621.5,368.8v2.9l1.4,3.2l-.8,3l.7,1.3l3.1,2.9l1.1,3.6l2.4,3.9l.6,.7h1.6l.8,.4l.2,.7l.5,.4l1.3,.1l.1,.7l2.4,.3l.6,.7l2.3,.5l.8,.7h.8l.7,.6l1.6,-.1l.8,.6l.6,-1.1l2.5,3l.2,2.4l.5,1.1l-.3,1.6l1.6,1.8l.2,.9l3.5,-.1l1,-.8l1.4,.6l.5,1l2.1,.1l.8,-.9l3.2,.7l1.6,-.7l.9,-1.5l1.8,.1l.9,.7l2.2,-1.3h2l1.4,-1l2.2,-.8l2.3,-1.8l-.1,-.9l-.4,.3l-.5,-.8l-.1,.4l-.4,-.2l-.1,-.4l-2.1,-1l.5,-.7l-1,-2.2v-1.8l-.3,-.2l.1,.3l-.5,.1v-1l-.4,-.1l.7,.1l-.9,-1.2l-.4,-1.9l.4,-.1l.5,-1.5v-.9l-.8,-.5l-.1,-.6l1.4,-2.9l-.3,-.7l-1.1,-.6l-1,-1.4l-1,-.6l-.5,-1.8l1.8,-4.7l-.1,-1l.5,-.4l.1,-1l-7.3,-5.1l-.3,-.6l-.6,-.1l-.2,-.5l.7,-.6l-.2,-1.3L645.5,351.5l-17,-.2l-1.6,.4l.5,1.4l.9,.4l-.1,.5l.6,.6l-.2,1.5l.5,.8l-.4,1.4l-1.4,.3l-.6,1.2l.5,.2l-.5,.7l.3,.6l.4,-.3l.5,.5l.9,-.1v1.5l-.9,.3v.6l-1.1,.6l-.2,1.1l-.8,.6l-1.1,1.9l-1.1,.5l-.3,.5l-1.8,-.2Zm53.4,16.5l-1.4,1.7l1.1,-.3l.3,-1.4Zm-1,-12.1l-.4,.6l.6,.3l.5,-.9l.2,-1.9l-1.1,.2l.4,1l-.2,.7Zm.5,13.8h-.2l.1,.3l.1,-.3Zm-3.1,-10l.1,1.1l.4,.4l.1,-.4l1.1,1.2v-1.5l-.5,-.2l-.6,-2.1l-.2,.7l-.5,.2l.1,.6Zm1.7,15.1h-.2l.1,.2l.1,-.2Z" class="g3"/>
<path d="M555.6,498.4l1.9,2.7l3.1,9l4.3,7.5l.2,4.1l-1,1.3l-1,-.4l-.4,.7l.2,1.2h.7l.4,.8l-.6,-.4l-.1,.3l2.4,3.4l.3,1.1l-1,1l.4,1.4l.4,.4v-1.4l1.8,-.1l.3,.4l-.2,1.4l1.1,-.3l.4,.5l.7,-.1l.5,.6l-.2,.7h.5l1.2,1.1l1.1,-.1l.6,.4l2.6,-2.2l1.8,-.1l.2,-.6l2.1,.4l.7,-.4h2.2l.3,-.8l1,-.3l-.1,-.4l.6,-.4l1.8,-.4l4.1,.7l.2,-.6l1.1,-.2l6.1,1.4l.7,-1.4l3.3,.4l.4,-.1l-.5,-.5l.1,-.6l.8,-.6l1.5,-.3l1.9,.4l3.3,-1.5l7.3,-5.8l4.5,-5.3l2.1,-1.4l1.6,-1.8l6,-10.4l2.2,-2.4l1.2,-.5l1.9,-1.8l.9,-2.6l1.7,-7.3l-4.4,-.2l-.2,2.9h-2.5l-1.7,-.7l-.9,-.9l-.4,-1.4l-.4,.3l-.1,-2.2l1.7,-3.1l.9,-1l.5,-.1l2.3,1.6l.6,-.3l-.3,-.6l.6,-4l-.3,-4.7l-.5,-1.9l-.6,-.4l-1,-2.2v-1.6L631,463.1l-2.2,-.4L626,463l-3.2,-1.2l-3.2,.5l-.6,1.3l-2.1,.7l-.8,-.1l-3.1,3.7l-.7,-.1l-.4,.9l-1,.1l-1,.8l-.3,.7l-.5,.2l-.6,3.1l-1.3,.8l-1,1.3l-2.8,.7l.2,.7l-1.9,4.5l-1,.5l-1.4,-.3l-1.8,.6l-1.6,-.4l-.9,-.8l-1.5,.1l-2.2,-2l-2.4,.2L588,481l-.5,2.5l-.9,1.1l-.4,-.1l-1.1,.8l-1,1.7l-1.4,.2v.7l-.4,.4h-2.9l-1.3,-.4l-1,.4l-.4,-2l1.3,-2.2l-.2,-1.5l-.9,-1.3l.1,-1.1l-.7,-.7l-.7,-1.6l-2,-1.5v20.9l-2.3,.6l-.4,1l-1,.2l-.1,.9l-.6,.4l-1,-.7l-1,-.1l-2.7,.5l-1.2,-.8h-1.6l-.4,-.6l-.8,.2l.1,-.8l-.5,-.6l.4,-.5l-.2,-.5l-.2,-.4l-.6,.1l-.2,-.8l-.5,-.4l-.9,.2l-.4,1.2l-.4,-.1l.3,.6l-.4,.7l-1.3,.5l-.1,.3Zm54,6.3l-.2,-.5l1.4,-.5l2.4,-3.7l1.2,-.2l.8,-.9l2.4,-.8l.9,1.1h.4l.4,.8l1.7,1l.7,1.6l-.8,.8v.9l-.8,.6l-.1,.6l.3,.4l-1.6,1l-2.3,.4l-.9,.7l.2,.5l-.6,.7l-.1,1.1l-2,-.3l-1.7,-1.8v-.9h-.4l-1.3,-2.6Z" class="g5"/>
<path d="M555.6,498.4l1.9,2.7l3.1,9l4.3,7.5l.2,4.1l-1,1.3l-1,-.4l-.4,.7l.2,1.2h.7l.4,.8l-.6,-.4l-.1,.3l2.4,3.4l.3,1.1l-1,1l.4,1.4l.4,.4v-1.4l1.8,-.1l.3,.4l-.2,1.4l1.1,-.3l.4,.5l.7,-.1l.5,.6l-.2,.7h.5l1.2,1.1l1.1,-.1l.6,.4l2.6,-2.2l1.8,-.1l.2,-.6l2.1,.4l.7,-.4h2.2l.3,-.8l1,-.3l-.1,-.4l.6,-.4l1.8,-.4l4.1,.7l.2,-.6l1.1,-.2l6.1,1.4l.7,-1.4l3.3,.4l.4,-.1l-.5,-.5l.1,-.6l.8,-.6l1.5,-.3l1.9,.4l3.3,-1.5l7.3,-5.8l4.5,-5.3l2.1,-1.4l1.6,-1.8l6,-10.4l2.2,-2.4l1.2,-.5l1.9,-1.8l.9,-2.6l1.7,-7.3l-4.4,-.2l-.2,2.9h-2.5l-1.7,-.7l-.9,-.9l-.4,-1.4l-.4,.3l-.1,-2.2l1.7,-3.1l.9,-1l.5,-.1l2.3,1.6l.6,-.3l-.3,-.6l.6,-4l-.3,-4.7l-.5,-1.9l-.6,-.4l-1,-2.2v-1.6L631,463.1l-2.2,-.4L626,463l-3.2,-1.2l-3.2,.5l-.6,1.3l-2.1,.7l-.8,-.1l-3.1,3.7l-.7,-.1l-.4,.9l-1,.1l-1,.8l-.3,.7l-.5,.2l-.6,3.1l-1.3,.8l-1,1.3l-2.8,.7l.2,.7l-1.9,4.5l-1,.5l-1.4,-.3l-1.8,.6l-1.6,-.4l-.9,-.8l-1.5,.1l-2.2,-2l-2.4,.2L588,481l-.5,2.5l-.9,1.1l-.4,-.1l-1.1,.8l-1,1.7l-1.4,.2v.7l-.4,.4h-2.9l-1.3,-.4l-1,.4l-.4,-2l1.3,-2.2l-.2,-1.5l-.9,-1.3l.1,-1.1l-.7,-.7l-.7,-1.6l-2,-1.5v20.9l-2.3,.6l-.4,1l-1,.2l-.1,.9l-.6,.4l-1,-.7l-1,-.1l-2.7,.5l-1.2,-.8h-1.6l-.4,-.6l-.8,.2l.1,-.8l-.5,-.6l.4,-.5l-.2,-.5l-.2,-.4l-.6,.1l-.2,-.8l-.5,-.4l-.9,.2l-.4,1.2l-.4,-.1l.3,.6l-.4,.7l-1.3,.5l-.1,.3Zm54,6.3l-.2,-.5l1.4,-.5l2.4,-3.7l1.2,-.2l.8,-.9l2.4,-.8l.9,1.1h.4l.4,.8l1.7,1l.7,1.6l-.8,.8v.9l-.8,.6l-.1,.6l.3,.4l-1.6,1l-2.3,.4l-.9,.7l.2,.5l-.6,.7l-.1,1.1l-2,-.3l-1.7,-1.8v-.9h-.4l-1.3,-2.6Z" class="g3"/>
<path d="M404.2,300.1l.9,1l-.6,.2l.4,1.4l.7,-.4l.6,.3l-.6,-.1l-.6,.6l-.6,-.2l-.1,.4l.6,1l.9,-.1l.5,.8l-.2,1.1l1.1,.9l1,-.2l-.1,.4l.6,.5l-.3,.9l5,2.4l.6,-.5l.3,-1l3.6,-2.9v-1.4l1.6,-.9l-.1,-1.4l-1.2,1l-.6,-.2l.3,-1l.7,-.7l-.5,-2l-.8,-.1l.4,-1.1l-.9,-.8l-1.9,-2.9l-3.5,.1l-1.3,.6l-.4,-.3l-1.1,.2l-1.8,3l-.8,.2v.5l-.6,.6l-1.2,.1Z" class="g7"/>
<path d="M408.1,307.8l.2,-.2l-.5,-.3l-1.7,.2l1.9,1.1l.3,-.6l-.2,-.2Z" class="g7"/>
<path d="M404.2,300.1l.9,1l-.6,.2l.4,1.4l.7,-.4l.6,.3l-.6,-.1l-.6,.6l-.6,-.2l-.1,.4l.6,1l.9,-.1l.5,.8l-.2,1.1l1.1,.9l1,-.2l-.1,.4l.6,.5l-.3,.9l5,2.4l.6,-.5l.3,-1l3.6,-2.9v-1.4l1.6,-.9l-.1,-1.4l-1.2,1l-.6,-.2l.3,-1l.7,-.7l-.5,-2l-.8,-.1l.4,-1.1l-.9,-.8l-1.9,-2.9l-3.5,.1l-1.3,.6l-.4,-.3l-1.1,.2l-1.8,3l-.8,.2v.5l-.6,.6l-1.2,.1Zm3.9,7.7l.2,-.2l-.5,-.3l-1.7,.2l1.9,1.1l.3,-.6l-.2,-.2Z" class="g3"/>
<path d="M386.7,279.3l-.2,1.6l1,-.3l-.2,.7l1,.4l-.8,-.2l-1,.6l.3,.9l3.3,-.7l2,.3l2.6,-1.4l10.7,.3v.8l.5,.1l.4,-.5l2.8,1.3l1.1,-.6l1.9,.2l2,-.4l-.4,-1.3l.3,-.1l.1,-1.3l-1.4,-2.2l-.4,-.1l-.5,.6l-.4,-.4l.1,-.4l-1.1,-1.4l.7,-1l-.3,-.3l-.2,-1.7l-.8,-.6l.2,-1.4l-1.5,-1.2l-.2,-.6l-1.8,-1l-.6,-1.6l-.7,.1l.1,-.5l-.7,-.1l-.8,-2.4l-1,-.4l-1.4,.1l-.6,-1.1L399,260.8v-.4l-3.9,-.2l-.1,.5l-1.4,.3l-.4,-.3l-1.2,.6h-1.7l-.4,-.4l-.9,.2l-1.1,2.4l-.4,2.1l-1.5,2.3l-1.3,1.7l-2,.8l.4,.4l.3,-.3l1,.3l1.2,1.4l1,2.3l.9,-.4l-.8,.5l.3,.5l.5,.1l.5,-.6l-.8,1.3l.5,.6h5.4l.5,-1l1.7,-.3l1,.3l.7,.8l.9,-.1l1.1,1l2.1,-.6l.6,1l-1.8,.8h-1.1l-2.9,-1.2l-.8,-.8l-1.1,1.3l-2.5,.1v.9H387l-.3,.6Z" class="g8"/>
<path d="M387.2,281l.3,-.3l-.9,.4l.1,.7l.6,-.3l-.1,-.5Z" class="g8"/>
<path d="M387.1,275.2l-.3,-.4l.1,.7l.2,-.3Z" class="g8"/>
<path d="M386.7,279.3l-.2,1.6l1,-.3l-.2,.7l1,.4l-.8,-.2l-1,.6l.3,.9l3.3,-.7l2,.3l2.6,-1.4l10.7,.3v.8l.5,.1l.4,-.5l2.8,1.3l1.1,-.6l1.9,.2l2,-.4l-.4,-1.3l.3,-.1l.1,-1.3l-1.4,-2.2l-.4,-.1l-.5,.6l-.4,-.4l.1,-.4l-1.1,-1.4l.7,-1l-.3,-.3l-.2,-1.7l-.8,-.6l.2,-1.4l-1.5,-1.2l-.2,-.6l-1.8,-1l-.6,-1.6l-.7,.1l.1,-.5l-.7,-.1l-.8,-2.4l-1,-.4l-1.4,.1l-.6,-1.1L399,260.8v-.4l-3.9,-.2l-.1,.5l-1.4,.3l-.4,-.3l-1.2,.6h-1.7l-.4,-.4l-.9,.2l-1.1,2.4l-.4,2.1l-1.5,2.3l-1.3,1.7l-2,.8l.4,.4l.3,-.3l1,.3l1.2,1.4l1,2.3l.9,-.4l-.8,.5l.3,.5l.5,.1l.5,-.6l-.8,1.3l.5,.6h5.4l.5,-1l1.7,-.3l1,.3l.7,.8l.9,-.1l1.1,1l2.1,-.6l.6,1l-1.8,.8h-1.1l-2.9,-1.2l-.8,-.8l-1.1,1.3l-2.5,.1v.9H387l-.3,.6Zm.5,1.7l.3,-.3l-.9,.4l.1,.7l.6,-.3l-.1,-.5Zm-.1,-5.8l-.3,-.4l.1,.7l.2,-.3Z" class="g3"/>
<path d="M622.4,353.3l-1.7,1.4l-.7,3l-1.3,.9l.4,1.4l.5,.3l.2,-.8l1.3,.3l.2,.9l1.7,-.1l1.1,-.6l.2,-1.9l.9,.6l1.4,-.7l.8,.6l1.5,-.5l-.1,-3.5l-.6,-.6l.1,-.5l-.9,-.4l-.5,-1.4h-.6l-.9,1.5l-1.3,.7l-.4,-.9l-1.3,.3Z" class="g2"/>
<path d="M622.4,353.3l-1.7,1.4l-.7,3l-1.3,.9l.4,1.4l.5,.3l.2,-.8l1.3,.3l.2,.9l1.7,-.1l1.1,-.6l.2,-1.9l.9,.6l1.4,-.7l.8,.6l1.5,-.5l-.1,-3.5l-.6,-.6l.1,-.5l-.9,-.4l-.5,-1.4h-.6l-.9,1.5l-1.3,.7l-.4,-.9l-1.3,.3Z" class="g3"/>
<path d="M505.2,323.3l.4,1l.4,-.1l-.2,-.7l.3,.6h.7l-.3,-.9l.3,.7l.6,.1l-.3,-1.1l.8,-.7l1,1.2l.3,-.1l-.2,-.5l1,.5l-.8,.3l4.8,-.4l.3,-.4l-.1,-.7l-.8,-.9l1.9,1.1l1.4,-2.4l.6,-2l-.4,-.6l.1,-.8l2.1,-1.8l.3,-.8l.5,.2l.1,-.7l1.3,-.3l.3,-1.4l.6,.1l1.3,-1.3l.4,.6l1.4,-.1l.4,-1.2l1.3,1.1l-.1,.4l.5,.8l.9,.1v.7l1.3,.2l.9,-.5l.2,-1.3l.8,-1h.6l-.1,-1.2l1.1,-1.2l.1,-1l.9,-1.5l.1,-2.2l2.8,-1.6l.5,-1.9l-.1,-1.4l1.8,-1l.4,-1.3l-.4,-.4l.1,-.7l1,-.6l.6,-1.8l-.2,-.6l.9,-1.8l1.4,-1.7l.8,.3l2.5,-1.4l.1,-.7l-.5,-.4l.7,-2.3l-1.1,-1l-1.4,-.1l-.6,-3.6l-2.2,-3.3l-1.5,-.1l-.6,.8l-1.8,.4l-1.8,1.5l-.3,.7l-1.6,-.2l-3.2,-1.3l-4.4,-.1l-3.1,1l-2,2l-3.6,-.2l-2.7,-1.1L513,278l-1.3,-.3l-2.2,1.3l-.9,-.1l-.5,.6h-.9L505,276.6L500,275l-1.5,.7l-1.9,-.1l-2.1,.4l-1.6,1.1l-.2,2.5l-.8,1.2l-1.5,1.3l-.1,3.1l.3,.8l-1.1,1.6l1.4,1.7l.6,2.8l-.3,.9l-.8,-.1l-.3,.7l.5,.7l-.4,1.1l-1.4,.8l.1,.6l-1,1.1l-.3,1.9l-1.6,.1l-.4,3.7l.3,.9l-.4,1.5l.6,2.4h-.2l.2,2l-.4,.5l.4,1.2l-.4,1.7l5.6,-.3l3.3,.5l2.4,2l1.2,1.8l.6,-.2l-.7,.5l.3,.3l1.1,.4l.4,-.3l.2,.4H499l.1,1l1,2.3l1,1.3l1.6,1l-.1,-.4l.5,-.4l-.2,.8h.6l.1,-.7l.4,-.1l.7,.6h.7l-.2,-1Z" class="g4"/>
<path d="M509.5,323l-.2,.2h.2V323Z" class="g4"/>
<path d="M508.9,323.4l-.2,-.2l-.5,.8l.9,-.2l-.2,-.4Z" class="g4"/>
<path d="M507.9,322.9l.5,.1l-.6,-.8l-.3,.7l.8,.6l-.4,-.6Z" class="g4"/>
<path d="M507.9,323.1v.2l.1,.3l-.1,-.5Z" class="g4"/>
<path d="M507.8,323.7v-.5h-.3l.3,.5Z" class="g4"/>
<path d="M507.4,323l-.2,-.2v.2h.2Z" class="g4"/>
<path d="M503.8,324l-.1,.4h.8l-.4,-.6l-.3,.2Z" class="g4"/>
<path d="M503.1,324v-.2l-.2,.2h.2Z" class="g4"/>
<path d="M505.2,323.3l.4,1l.4,-.1l-.2,-.7l.3,.6h.7l-.3,-.9l.3,.7l.6,.1l-.3,-1.1l.8,-.7l1,1.2l.3,-.1l-.2,-.5l1,.5l-.8,.3l4.8,-.4l.3,-.4l-.1,-.7l-.8,-.9l1.9,1.1l1.4,-2.4l.6,-2l-.4,-.6l.1,-.8l2.1,-1.8l.3,-.8l.5,.2l.1,-.7l1.3,-.3l.3,-1.4l.6,.1l1.3,-1.3l.4,.6l1.4,-.1l.4,-1.2l1.3,1.1l-.1,.4l.5,.8l.9,.1v.7l1.3,.2l.9,-.5l.2,-1.3l.8,-1h.6l-.1,-1.2l1.1,-1.2l.1,-1l.9,-1.5l.1,-2.2l2.8,-1.6l.5,-1.9l-.1,-1.4l1.8,-1l.4,-1.3l-.4,-.4l.1,-.7l1,-.6l.6,-1.8l-.2,-.6l.9,-1.8l1.4,-1.7l.8,.3l2.5,-1.4l.1,-.7l-.5,-.4l.7,-2.3l-1.1,-1l-1.4,-.1l-.6,-3.6l-2.2,-3.3l-1.5,-.1l-.6,.8l-1.8,.4l-1.8,1.5l-.3,.7l-1.6,-.2l-3.2,-1.3l-4.4,-.1l-3.1,1l-2,2l-3.6,-.2l-2.7,-1.1L513,278l-1.3,-.3l-2.2,1.3l-.9,-.1l-.5,.6h-.9L505,276.6L500,275l-1.5,.7l-1.9,-.1l-2.1,.4l-1.6,1.1l-.2,2.5l-.8,1.2l-1.5,1.3l-.1,3.1l.3,.8l-1.1,1.6l1.4,1.7l.6,2.8l-.3,.9l-.8,-.1l-.3,.7l.5,.7l-.4,1.1l-1.4,.8l.1,.6l-1,1.1l-.3,1.9l-1.6,.1l-.4,3.7l.3,.9l-.4,1.5l.6,2.4h-.2l.2,2l-.4,.5l.4,1.2l-.4,1.7l5.6,-.3l3.3,.5l2.4,2l1.2,1.8l.6,-.2l-.7,.5l.3,.3l1.1,.4l.4,-.3l.2,.4H499l.1,1l1,2.3l1,1.3l1.6,1l-.1,-.4l.5,-.4l-.2,.8h.6l.1,-.7l.4,-.1l.7,.6h.7l-.2,-1Zm4.3,-.3l-.2,.2h.2V323Zm-.6,.4l-.2,-.2l-.5,.8l.9,-.2l-.2,-.4Zm-1,-.5l.5,.1l-.6,-.8l-.3,.7l.8,.6l-.4,-.6Zm0,.2v.2l.1,.3l-.1,-.5Zm-.1,.6v-.5h-.3l.3,.5Zm-.4,-.7l-.2,-.2v.2h.2Zm-3.6,1l-.1,.4h.8l-.4,-.6l-.3,.2Zm-.7,0v-.2l-.2,.2h.2Z" class="g3"/>
<path d="M473,269.1l-.3,2.4l1.2,1.5l-.1,1l1.2,1.9l.8,.1l2.6,1.7l-1.5,-.1l.1,2h.6l2.3,1.9l1.5,.1l.6,-.7l.9,.3l.6,1.4l-1.1,.4l1.7,2.3l.3,-.6l-.4,-1.2l1.6,-.2l.9,-.5l2.2,2.5l.9,.2l.6,.9l.4,-.4l-.3,-.8l.1,-3.1l1.5,-1.3l.8,-1.2l.2,-2.5l1.6,-1.1l2.1,-.4l1.9,.1L500,275l5,1.6l2.2,2.9h.9l.5,-.6l.9,.1l2.2,-1.3l1.3,.3l1.7,1.3l2.7,1.1l3.6,.2l2,-2l3.1,-1l4.4,.1l3.2,1.3l1.6,.2l.3,-.7l1.8,-1.5l1.8,-.4l.6,-.8l1.5,.1l-.9,-4l1.1,-.4V271l.6,-.4l.3,-1.7l2.6,-3.6l5.7,-6.2l.5,-10l.8,-6.3l1.3,-2.3l-2.1,-2.3l-.3,-.6l.5,-.4l-2.2,-2.9v-2.8l-1,-5.5l-4.1,2l-4,-3.2l-7.2,-1.7l-23,14.7l-8.4,7.6l-8.1,1.7l.1,11.4l-.9,.5v3.1l-.9,3.1l-1.8,1.3l-.1,.8l-4.9,-.1l-6.2,.5l-2,1.5l-3.7,-.1Z" class="g7"/>
<path d="M473,269.1l-.3,2.4l1.2,1.5l-.1,1l1.2,1.9l.8,.1l2.6,1.7l-1.5,-.1l.1,2h.6l2.3,1.9l1.5,.1l.6,-.7l.9,.3l.6,1.4l-1.1,.4l1.7,2.3l.3,-.6l-.4,-1.2l1.6,-.2l.9,-.5l2.2,2.5l.9,.2l.6,.9l.4,-.4l-.3,-.8l.1,-3.1l1.5,-1.3l.8,-1.2l.2,-2.5l1.6,-1.1l2.1,-.4l1.9,.1L500,275l5,1.6l2.2,2.9h.9l.5,-.6l.9,.1l2.2,-1.3l1.3,.3l1.7,1.3l2.7,1.1l3.6,.2l2,-2l3.1,-1l4.4,.1l3.2,1.3l1.6,.2l.3,-.7l1.8,-1.5l1.8,-.4l.6,-.8l1.5,.1l-.9,-4l1.1,-.4V271l.6,-.4l.3,-1.7l2.6,-3.6l5.7,-6.2l.5,-10l.8,-6.3l1.3,-2.3l-2.1,-2.3l-.3,-.6l.5,-.4l-2.2,-2.9v-2.8l-1,-5.5l-4.1,2l-4,-3.2l-7.2,-1.7l-23,14.7l-8.4,7.6l-8.1,1.7l.1,11.4l-.9,.5v3.1l-.9,3.1l-1.8,1.3l-.1,.8l-4.9,-.1l-6.2,.5l-2,1.5l-3.7,-.1Z" class="g3"/>
<path d="M404.9,199.6l22.9,.1v-6.1l5.4,-3.8l1.3,-.1l1,-.7l2,.3l1.9,-.4l1,.4l2.4,-.7l-.2,.3l.7,.5l2.4,-3.2l4.2,-3l2.5,-.6l.3,-1l1.2,-1.3l-.9,-1.1l-.3,.3l-.1,-1l.6,-.6l.1,-1.4l4.2,-1l-.5,-1.4l.2,-.5l4.4,-.3l3.9,.5l.5,-.2l-.6,-.3l.1,-.5l1.2,-1.6l-1.9,-1.5l-.8,-1.2l.4,-.7l-1,-1.3l.4,-1.5l-.6,-1.1l.3,-2.4l-.7,-1.8l.4,-.5l-.7,-.9l.5,-.7l-2.4,-2.2l-1.1,-.3l-.7,.4l-1.7,-.5l-.2,-1.7l-.7,.9l-1.3,.6l-1.9,-.6l-.4,.5l-.7,-.4l-2.5,.7l-1.7,-.4l-1.6,-1.2l-.9,-.8l-.7,-2.3l-2.1,.8h-.7l-1.9,5.7l-2.5,4.8l-1.3,1.3l-2.4,1.5l-5,2.2l-4,4.4l.2,2.2l-3,4.6l.2,3.5l-.4,1.1l.5,.2l.9,1.1l-.2,1.5L422,187l-2.1,3.2l-1.6,1.7l-2.8,1.6l-2.3,2.6l-3.5,1.4l-.4,.4l.3,-.4l-3.4,.6l-1.3,1.5Z" class="g7"/>
<path d="M404.9,199.6l22.9,.1v-6.1l5.4,-3.8l1.3,-.1l1,-.7l2,.3l1.9,-.4l1,.4l2.4,-.7l-.2,.3l.7,.5l2.4,-3.2l4.2,-3l2.5,-.6l.3,-1l1.2,-1.3l-.9,-1.1l-.3,.3l-.1,-1l.6,-.6l.1,-1.4l4.2,-1l-.5,-1.4l.2,-.5l4.4,-.3l3.9,.5l.5,-.2l-.6,-.3l.1,-.5l1.2,-1.6l-1.9,-1.5l-.8,-1.2l.4,-.7l-1,-1.3l.4,-1.5l-.6,-1.1l.3,-2.4l-.7,-1.8l.4,-.5l-.7,-.9l.5,-.7l-2.4,-2.2l-1.1,-.3l-.7,.4l-1.7,-.5l-.2,-1.7l-.7,.9l-1.3,.6l-1.9,-.6l-.4,.5l-.7,-.4l-2.5,.7l-1.7,-.4l-1.6,-1.2l-.9,-.8l-.7,-2.3l-2.1,.8h-.7l-1.9,5.7l-2.5,4.8l-1.3,1.3l-2.4,1.5l-5,2.2l-4,4.4l.2,2.2l-3,4.6l.2,3.5l-.4,1.1l.5,.2l.9,1.1l-.2,1.5L422,187l-2.1,3.2l-1.6,1.7l-2.8,1.6l-2.3,2.6l-3.5,1.4l-.4,.4l.3,-.4l-3.4,.6l-1.3,1.5Z" class="g3"/>
<path d="M385.1,238.2l.6,-2.1l1.3,2.6l.8,.7l.2,-.9l1.4,2.7l-.3,.5l.1,1.9l-1.1,1.9l.9,-.6l-.6,.8h-.7l1.8,2.5l.9,5.1l-.5,3l-1.7,4.2l-.3,3l1.3,-2.5l2.8,.3l1.2,-.6l.4,.3l1.4,-.3l.1,-.5l3.9,.2v.4l1.8,1.3l.6,1.1l1.4,-.1l1,.4l.9,1.9l-.2,.2l.8,.4l-.1,.5l.7,-.1l.6,1.6l1.8,1l.5,.9l1.7,.7l1.4,-1l-.2,-1.5l.6,-1.8l.7,-.1l.6,-.5l2.8,2.8l.9,-1.7l6.4,.1l.4,-.1l-.3,-.9l.6,-.5v1.1l19.5,-.1l.9,-4.4l-1.4,-.8l-3.8,-46.3h7.7L427.8,201.7v7.5h-17v14.3l-2.9,.9l-2,1.2l-.7,1l.5,8.6h-20l-.6,3Z" class="g5"/>
<path d="M388.8,243.2l-.9,.7l.4,.7l.5,-1.4Z" class="g5"/>
<path d="M385.1,238.2l.6,-2.1l1.3,2.6l.8,.7l.2,-.9l1.4,2.7l-.3,.5l.1,1.9l-1.1,1.9l.9,-.6l-.6,.8h-.7l1.8,2.5l.9,5.1l-.5,3l-1.7,4.2l-.3,3l1.3,-2.5l2.8,.3l1.2,-.6l.4,.3l1.4,-.3l.1,-.5l3.9,.2v.4l1.8,1.3l.6,1.1l1.4,-.1l1,.4l.9,1.9l-.2,.2l.8,.4l-.1,.5l.7,-.1l.6,1.6l1.8,1l.5,.9l1.7,.7l1.4,-1l-.2,-1.5l.6,-1.8l.7,-.1l.6,-.5l2.8,2.8l.9,-1.7l6.4,.1l.4,-.1l-.3,-.9l.6,-.5v1.1l19.5,-.1l.9,-4.4l-1.4,-.8l-3.8,-46.3h7.7L427.8,201.7v7.5h-17v14.3l-2.9,.9l-2,1.2l-.7,1l.5,8.6h-20l-.6,3Zm3.7,5l-.9,.7l.4,.7l.5,-1.4Z" class="g3"/>
<path d="M409.6,270.3l.5,.7l-.3,1.2l1.1,1.1l-.1,1.2l.3,.3l-.7,1l.2,.5l1.2,1.7l.5,-.6l.4,.1l1.4,2.2L414,281l-.3,.1l.4,1.3l-.7,1.4l1,.9h.6l.7,-1.1h.5l1.2,1.7l1,-1.2l1,-.5l3.1,1l.3,-.7l1.7,-.6l-.2,-1.1h1l1.1,.9l-.2,.7l.9,.9l-.2,1.9h.7l.4,.9l1.3,.5v.5l-.9,.4l-.6,1.3l.8,-.1l.1,-.5h.8l.5,3.4l.6,-.1l.1,.4l.7,.2l-.1,.8l.9,-.4l.8,-1.2h.8l.6,.6l-.1,.4l1.8,.6l.4,-1.1l1.6,-.1v-1.4l1,.5l.1,-.6l.9,-.3v1.1l.4,.5l-.3,.7l1,.5l1.2,-1.2h1.4l.3,-.7l.2,-1.3l-.4,-1.3l.9,-.4l.6,-1.5l-.4,-1l.1,-.5l-.5,-.4l1.2,-.8l2.5,-.5l.8,-1.4l.4,.1l-.2,-.6l.4,-.6l-.6,-.9h.9l.5,-.6l-.7,-1.7l2,-1.8v.6h.8l1.8,1.2v-.7h1V276h.7l.4,.4l.8,-.2l.1,-2.1l1.9,-1.3l1.9,.8l.5,-.3l.1,-1.5l1,.1l2.4,-1.4l1.3,-.3l1.7,-1.6h1.4l.3,.5l.7,-.4l1.5,.5l3.3,.2l1.3,-.2l2,-1.5l6.2,-.5l4.9,.1l.1,-.8l1.8,-1.3l.9,-3.1V259l.9,-.5l-.1,-11.4l-4.2,.9l-.5,-.2l-.9,-.7l.7,-1.7v-2.1l-2.5,-.8l-.4,-.5l-1.6,.1l-.5,-1.3l-1.8,.4l-.7,-.4l-1,-1.6l-1.4,-.8l-.7,.1l-.1,-2.2L447.3,214.9h-7.7l3.8,46.3l1.4,.8l-.9,4.4l-19.5,.1v-1.1l-.6,.5l.3,.9l-.4,.1l-6.4,-.1l-.9,1.7l-2.8,-2.8l-.6,.5l-.7,.1l-.6,1.8v1.7l-1.2,.8l-.9,-.3Z" class="g7"/>
<path d="M409.6,270.3l.5,.7l-.3,1.2l1.1,1.1l-.1,1.2l.3,.3l-.7,1l.2,.5l1.2,1.7l.5,-.6l.4,.1l1.4,2.2L414,281l-.3,.1l.4,1.3l-.7,1.4l1,.9h.6l.7,-1.1h.5l1.2,1.7l1,-1.2l1,-.5l3.1,1l.3,-.7l1.7,-.6l-.2,-1.1h1l1.1,.9l-.2,.7l.9,.9l-.2,1.9h.7l.4,.9l1.3,.5v.5l-.9,.4l-.6,1.3l.8,-.1l.1,-.5h.8l.5,3.4l.6,-.1l.1,.4l.7,.2l-.1,.8l.9,-.4l.8,-1.2h.8l.6,.6l-.1,.4l1.8,.6l.4,-1.1l1.6,-.1v-1.4l1,.5l.1,-.6l.9,-.3v1.1l.4,.5l-.3,.7l1,.5l1.2,-1.2h1.4l.3,-.7l.2,-1.3l-.4,-1.3l.9,-.4l.6,-1.5l-.4,-1l.1,-.5l-.5,-.4l1.2,-.8l2.5,-.5l.8,-1.4l.4,.1l-.2,-.6l.4,-.6l-.6,-.9h.9l.5,-.6l-.7,-1.7l2,-1.8v.6h.8l1.8,1.2v-.7h1V276h.7l.4,.4l.8,-.2l.1,-2.1l1.9,-1.3l1.9,.8l.5,-.3l.1,-1.5l1,.1l2.4,-1.4l1.3,-.3l1.7,-1.6h1.4l.3,.5l.7,-.4l1.5,.5l3.3,.2l1.3,-.2l2,-1.5l6.2,-.5l4.9,.1l.1,-.8l1.8,-1.3l.9,-3.1V259l.9,-.5l-.1,-11.4l-4.2,.9l-.5,-.2l-.9,-.7l.7,-1.7v-2.1l-2.5,-.8l-.4,-.5l-1.6,.1l-.5,-1.3l-1.8,.4l-.7,-.4l-1,-1.6l-1.4,-.8l-.7,.1l-.1,-2.2L447.3,214.9h-7.7l3.8,46.3l1.4,.8l-.9,4.4l-19.5,.1v-1.1l-.6,.5l.3,.9l-.4,.1l-6.4,-.1l-.9,1.7l-2.8,-2.8l-.6,.5l-.7,.1l-.6,1.8v1.7l-1.2,.8l-.9,-.3Z" class="g3"/>
<path d="M639.6,394.3l.2,1.2l.5,.3l.1,-.4h.4l.9,1.3l-.2,1.1l1.1,.8v.8l.6,1.2l-1.1,1.1l-1,.2l.8,1.5l-.6,1.5l-.4,-.1l.6,2l-.4,1.7l.6,1.1l.9,.1l-.9,1L640,411l-.5,.8l.4,.8v1.5l-.9,1.6l-.8,.5l.6,.2l-.2,.7l.9,.5l.4,.9l.7,-.7l.7,.6v.6l2,2.4l.2,-.6l.4,.3l2.8,-.8l.8,.9l.4,3.7l-.8,1l.1,.8l-1,1.5l.9,.9l-.1,1l.8,.4l1.8,2.2l1.1,.5l-.3,1.4l1.1,.2l-.1,-2.2l-.7,-.9l.6,-.4l.2,-1.3l.5,-.6l.6,.3l1.5,-.7l.2,-3.3l-.3,-1.3l.6,-1.5l-.2,-1.1l-4,-5.2l-1.1,-1.1H648l-.5,-.6l.2,-1.6l-.7,-4.6l1.2,-3.1h1.6l-.2,-.9L648,402.9l.3,-1.6l-.5,-1.1l-.2,-2.4l-2.5,-3l-.6,1.1l-.8,-.6l-1.6,.1l-.7,-.6h-.8l-1,-.5Z" class="g2"/>
<path d="M639.6,394.3l.2,1.2l.5,.3l.1,-.4h.4l.9,1.3l-.2,1.1l1.1,.8v.8l.6,1.2l-1.1,1.1l-1,.2l.8,1.5l-.6,1.5l-.4,-.1l.6,2l-.4,1.7l.6,1.1l.9,.1l-.9,1L640,411l-.5,.8l.4,.8v1.5l-.9,1.6l-.8,.5l.6,.2l-.2,.7l.9,.5l.4,.9l.7,-.7l.7,.6v.6l2,2.4l.2,-.6l.4,.3l2.8,-.8l.8,.9l.4,3.7l-.8,1l.1,.8l-1,1.5l.9,.9l-.1,1l.8,.4l1.8,2.2l1.1,.5l-.3,1.4l1.1,.2l-.1,-2.2l-.7,-.9l.6,-.4l.2,-1.3l.5,-.6l.6,.3l1.5,-.7l.2,-3.3l-.3,-1.3l.6,-1.5l-.2,-1.1l-4,-5.2l-1.1,-1.1H648l-.5,-.6l.2,-1.6l-.7,-4.6l1.2,-3.1h1.6l-.2,-.9L648,402.9l.3,-1.6l-.5,-1.1l-.2,-2.4l-2.5,-3l-.6,1.1l-.8,-.6l-1.6,.1l-.7,-.6h-.8l-1,-.5Z" class="g3"/>
<path d="M693.3,457.3l-.3,1.8l-.6,.6v.8l-.3,.1l-.3,1.3l.4,.4l-.4,.2v.4l.7,2.8l1.2,1.3l.1,1.3l.7,.7v.7l-.6,.6l.2,3.6l1.3,1.8l.7,2.3l1.8,1.2l2,.4l1.8,1.5l1.9,-.2l2.8,-1.7l1.2,-.4l2,-.1l1.9,-1L714,471l1.6,-7.3l7.8,-23.5l.4,-2.4l-.5,-1.9l.9,-2.3l1.1,-.3l-.4,-.7l.6,-.8l.1,-1.9l-1,-.9l.3,-.7l-.6,-1.9l.6,-.6h.9l.6,2.4l1,.5l1.3,-3.5l-1.3,-3l-.4,-4.9l-1.1,-3.2v-.9l-.9,-1.4h-.4l-.6,-.7l.2,-.6l-.4,-.9l-.3,.2L723,409v.4l-.8,-.1l.4,-.2l-.3,-.1l.2,-.4l.6,.3l-.4,-1.3l-.6,.3l.1,.4l-.5,-.1l.5,.3l-.3,.7l-.9,.4l-.1,.8l-1,-.4l.6,.6l.4,1.5l-.9,3l-.9,.3l-.5,-.4l.2,.8h-.9l-.5,1.5l-1,-1.5l-.8,.3l-.2,.9l.2,.7l.6,.3l-.5,.3l.6,.5v.9h-.4l.2,-.8l-.5,-.2l.2,.8l-.7,-.1l-.6,1.2l.3,.9l.2,-.3l1.1,.2v.3l-.2,-.2l-.2,.3l-.7,-.5l-1.8,2.8l-.2,-.7l.6,-.9l-.3,-.7l-.4,.4l-.5,.6l.5,.2l-1.6,1.4l.6,1.6l-.4,-.1l-.3,.6l-.4,-.3l.5,-.8l-.6,-.9l-3.1,2.5l-.1,.3h.3l-.3,.5l.8,.8l-.8,-.1l-.6,-1.3l-.5,.1l-.3,.7l-.8,-.5l-1,.2l-.5,1.3l-.2,-.5l-1,.2l.2,.4l-.5,.4l-.2,-1.1l-2.1,1.7l-2,-.3l-.1,2.8l-2.5,4.2l.5,1.6l.1,3.3l1,2v1.6l1.1,2l-.4,1.7l.5,.9l-2.9,4.9l-.6,2l-1.4,.5Z" class="g4"/>
<path d="M726.4,432.5l-.7,.9l.1,.4l.6,-1.3Z" class="g4"/>
<path d="M717.9,415.3l-.1,.2h.2l-.1,-.2Z" class="g4"/>
<path d="M717.5,414.1l-.4,.9l.7,.2l-.3,-1.1Z" class="g4"/>
<path d="M715.2,418.5l-.2,-.4v.3l.2,.1Z" class="g4"/>
<path d="M714.1,421.1L714,421l.2,.2l-.1,-.1Z" class="g4"/>
<path d="M693.3,457.3l-.3,1.8l-.6,.6v.8l-.3,.1l-.3,1.3l.4,.4l-.4,.2v.4l.7,2.8l1.2,1.3l.1,1.3l.7,.7v.7l-.6,.6l.2,3.6l1.3,1.8l.7,2.3l1.8,1.2l2,.4l1.8,1.5l1.9,-.2l2.8,-1.7l1.2,-.4l2,-.1l1.9,-1L714,471l1.6,-7.3l7.8,-23.5l.4,-2.4l-.5,-1.9l.9,-2.3l1.1,-.3l-.4,-.7l.6,-.8l.1,-1.9l-1,-.9l.3,-.7l-.6,-1.9l.6,-.6h.9l.6,2.4l1,.5l1.3,-3.5l-1.3,-3l-.4,-4.9l-1.1,-3.2v-.9l-.9,-1.4h-.4l-.6,-.7l.2,-.6l-.4,-.9l-.3,.2L723,409v.4l-.8,-.1l.4,-.2l-.3,-.1l.2,-.4l.6,.3l-.4,-1.3l-.6,.3l.1,.4l-.5,-.1l.5,.3l-.3,.7l-.9,.4l-.1,.8l-1,-.4l.6,.6l.4,1.5l-.9,3l-.9,.3l-.5,-.4l.2,.8h-.9l-.5,1.5l-1,-1.5l-.8,.3l-.2,.9l.2,.7l.6,.3l-.5,.3l.6,.5v.9h-.4l.2,-.8l-.5,-.2l.2,.8l-.7,-.1l-.6,1.2l.3,.9l.2,-.3l1.1,.2v.3l-.2,-.2l-.2,.3l-.7,-.5l-1.8,2.8l-.2,-.7l.6,-.9l-.3,-.7l-.4,.4l-.5,.6l.5,.2l-1.6,1.4l.6,1.6l-.4,-.1l-.3,.6l-.4,-.3l.5,-.8l-.6,-.9l-3.1,2.5l-.1,.3h.3l-.3,.5l.8,.8l-.8,-.1l-.6,-1.3l-.5,.1l-.3,.7l-.8,-.5l-1,.2l-.5,1.3l-.2,-.5l-1,.2l.2,.4l-.5,.4l-.2,-1.1l-2.1,1.7l-2,-.3l-.1,2.8l-2.5,4.2l.5,1.6l.1,3.3l1,2v1.6l1.1,2l-.4,1.7l.5,.9l-2.9,4.9l-.6,2l-1.4,.5Zm33.1,-24.8l-.7,.9l.1,.4l.6,-1.3Zm-8.5,-17.2l-.1,.2h.2l-.1,-.2Zm-.4,-1.2l-.4,.9l.7,.2l-.3,-1.1Zm-2.3,4.4l-.2,-.4v.3l.2,.1Zm-1.1,2.6L714,421l.2,.2l-.1,-.1Z" class="g3"/>
<path d="M520.5,184.8l-.8,.3v.5l1.9,3.9l.7,3.9l-.4,2.7l.7,2.3l-.2,1.2l-.5,.6l.2,.1l-.4,1.8l.7,2.2l-.3,2l-1.8,.7l-.6,1.1l3.2,4.7V215l1.7,2.5l1.8,-.3l.3,.4l.3,-.3l3,2l.9,-.3l2,4.1l7.2,1.7l4,3.2l9.2,-4.5L594,245.1v-2.7h5.1V190.5l-1.6,-5.2l1.3,-2.2l.4,-1.6l-.8,-3.7l1.4,-1.5l-.8,-1.8l-4.6,-.3l-1.7,-.9l-2.5,-.2l-.8,-.8l.3,-.8l-.3,-1l-4.7,-1.8h-2.8l-1.1,.8l-1.8,.2l-2.4,1.3l-2.7,2.6l-.7,2.1l1.3,3.7l-.3,1.2l-2.1,2.8l-2.2,1.1l-1.1,.1l-1.9,-.8l-2.5,-2.3l-1.7,-.8L557.2,179l-3.3,-.2l-2,-.9l-1.2,-1.7l-.7,-3l-.7,-1.2l-3.7,-.8L544,170l-3,-.5l-1,-.6l-2.8,.6l-2.5,-.2l-4,-2.1l-.4,3.2l.7,1.1l-3.3,1.7l-.9,1.1l-.7,.1l-.7,1.4l-1.1,.3l-.9,1.3l.8,2.3v1.6l-1.8,2.6l-1.9,.9Z" class="g4"/>
<path d="M520.5,184.8l-.8,.3v.5l1.9,3.9l.7,3.9l-.4,2.7l.7,2.3l-.2,1.2l-.5,.6l.2,.1l-.4,1.8l.7,2.2l-.3,2l-1.8,.7l-.6,1.1l3.2,4.7V215l1.7,2.5l1.8,-.3l.3,.4l.3,-.3l3,2l.9,-.3l2,4.1l7.2,1.7l4,3.2l9.2,-4.5L594,245.1v-2.7h5.1V190.5l-1.6,-5.2l1.3,-2.2l.4,-1.6l-.8,-3.7l1.4,-1.5l-.8,-1.8l-4.6,-.3l-1.7,-.9l-2.5,-.2l-.8,-.8l.3,-.8l-.3,-1l-4.7,-1.8h-2.8l-1.1,.8l-1.8,.2l-2.4,1.3l-2.7,2.6l-.7,2.1l1.3,3.7l-.3,1.2l-2.1,2.8l-2.2,1.1l-1.1,.1l-1.9,-.8l-2.5,-2.3l-1.7,-.8L557.2,179l-3.3,-.2l-2,-.9l-1.2,-1.7l-.7,-3l-.7,-1.2l-3.7,-.8L544,170l-3,-.5l-1,-.6l-2.8,.6l-2.5,-.2l-4,-2.1l-.4,3.2l.7,1.1l-3.3,1.7l-.9,1.1l-.7,.1l-.7,1.4l-1.1,.3l-.9,1.3l.8,2.3v1.6l-1.8,2.6l-1.9,.9Z" class="g3"/>
<path d="M413.5,311l.7,.8l.5,-.1l.2,.3l-.9,.1l2.6,1.2l.2,.8l.7,.4l2.3,.9l4.8,4.7l5.3,2.9l3.7,1.1l-.4,-2.8l.4,-.1l-.2,-.8l1,-1.3l-.3,-.3v-2.3l-1.7,-.6l-.7,-1.6l-2.6,-.4l-.2,-.7l-.6,-.1l1.2,-1.6l.3,-1.8L428.3,307l-.8,.3l.1,.7l-.9,1.3l-1,.3l-.7,-1l-.5,-.2l-.8,.2l.6,-1.9l-.8,-2.2l.1,-.8l-.8,-.3l-.1,-.5l-.2,.2l-.4,-.5l-1.4,.7l-.1,-.5l-1,.2l-.1,1.3l-1.6,.9v1.4l-3.6,2.9l-.8,1.5Z" class="g4"/>
<path d="M413.5,311l.7,.8l.5,-.1l.2,.3l-.9,.1l2.6,1.2l.2,.8l.7,.4l2.3,.9l4.8,4.7l5.3,2.9l3.7,1.1l-.4,-2.8l.4,-.1l-.2,-.8l1,-1.3l-.3,-.3v-2.3l-1.7,-.6l-.7,-1.6l-2.6,-.4l-.2,-.7l-.6,-.1l1.2,-1.6l.3,-1.8L428.3,307l-.8,.3l.1,.7l-.9,1.3l-1,.3l-.7,-1l-.5,-.2l-.8,.2l.6,-1.9l-.8,-2.2l.1,-.8l-.8,-.3l-.1,-.5l-.2,.2l-.4,-.5l-1.4,.7l-.1,-.5l-1,.2l-.1,1.3l-1.6,.9v1.4l-3.6,2.9l-.8,1.5Z" class="g3"/>
<path d="M671.5,370l1.1,-.4l1.1,-2.5l-.4,-.2l.6,.1l1.4,-3.4l.7,-.5l.6,-3.1l1,-.7h.9l1.3,-1.3l.5,.1l-.3,-1.4l.2,.2l1.4,-.7l.2,.2l1.5,-1.7l-2.8,-4.2V332l1.7,-1.7l2.9,-4.3l-3.7,.2l-1.9,-1.6l-4.8,2l-1.5,2.4l-2.4,-.7l-.9,.1l-1.1,-.5h-2.9l-5.7,-4l-.9,-.3h-4.4l-.2,-.9l-.7,-.9l.3,-2.6l-1.8,-.5l-.9,.4l-.1,-.9l-6.7,6.6l.7,1.3l-.2,.5l.6,-.1l-.3,.5l1.6,.6l-.4,1l.4,1.5l2.4,3.4l.5,3l-.1,1.3l-1.1,1.3l.2,.7l-1.6,.9l-.4,1.2l-.8,1.1l-.7,.3l-.2,1.2l-.9,1.3l.3,1.2l-.2,4.4l.9,.1l18.1,10.3l.2,1.3l-.7,.6l.2,.5l.6,.1l.3,.6l7.3,5.1Z" class="g7"/>
<path d="M681,356.7l-.7,.5l1.1,-.2l-.4,-.3Z" class="g7"/>
<path d="M671.5,370l1.1,-.4l1.1,-2.5l-.4,-.2l.6,.1l1.4,-3.4l.7,-.5l.6,-3.1l1,-.7h.9l1.3,-1.3l.5,.1l-.3,-1.4l.2,.2l1.4,-.7l.2,.2l1.5,-1.7l-2.8,-4.2V332l1.7,-1.7l2.9,-4.3l-3.7,.2l-1.9,-1.6l-4.8,2l-1.5,2.4l-2.4,-.7l-.9,.1l-1.1,-.5h-2.9l-5.7,-4l-.9,-.3h-4.4l-.2,-.9l-.7,-.9l.3,-2.6l-1.8,-.5l-.9,.4l-.1,-.9l-6.7,6.6l.7,1.3l-.2,.5l.6,-.1l-.3,.5l1.6,.6l-.4,1l.4,1.5l2.4,3.4l.5,3l-.1,1.3l-1.1,1.3l.2,.7l-1.6,.9l-.4,1.2l-.8,1.1l-.7,.3l-.2,1.2l-.9,1.3l.3,1.2l-.2,4.4l.9,.1l18.1,10.3l.2,1.3l-.7,.6l.2,.5l.6,.1l.3,.6l7.3,5.1ZM681,356.7l-.7,.5l1.1,-.2l-.4,-.3Z" class="g3"/>
<path d="M396,289.6l.2,.5h.6l-.3,.2l.4,1.3l.4,-.6l.6,-.1l-.6,1.6l1,.9v.7l.6,-.1l1.1,.9l.4,-.5l.1,.7l1.2,.9l1.2,.3l-.5,1.1l1.2,.9v.6h.5l.3,.7l-.2,.5l1.2,-.1l.6,-.6v-.5l.8,-.2l1.8,-3l1.1,-.2l.4,.3l1.3,-.6l3.5,-.1l1.9,2.9l.9,.8l-.4,1.1l.8,.1l.5,2l-.7,.7l-.3,1l.6,.2l1.2,-1l1.2,-.1l.1,.5l1.4,-.7l.4,.5l.2,-.2l.1,.5l.8,.3l-.1,.8l.8,2.2l-.6,1.9l.8,-.2l.5,.2l.7,1l1.2,-.4l.9,-2.2h.5l.2,.9l.6,.3l-.3,-.5l.3,-.3l1.1,.4l.8,-2.5l.5,.1l-.3,-.9l-1.3,-.2l.3,-1.4h1.3l.3,.4l.5,-.3l.2,.5h.5l-.7,-2l-.9,-.3l.3,-1.1l.8,-.1l-.9,-.7l.3,-1.2l-1,.1l-.4,-.6l.2,-1.6l-.3,-.5l1,-1.4v-.6l-.7,-.2l-.1,-.4l-.6,.1l-.5,-3.4h-.8l-.1,.5l-.8,.1l.6,-1.3l.9,-.4V288l-1.3,-.5l-.4,-.9h-.7l.2,-1.9l-.9,-.9l.2,-.7l-1.1,-.9h-1l.2,1.1l-1.7,.6l-.3,.7l-3.1,-1l-1,.5l-1,1.2l-1.2,-1.7h-.5l-.7,1.1h-.6l-1,-.9l.3,-1.1h.3l-.4,-.2l-3.4,.1l-1.1,.6l-2.8,-1.3l-.4,.5l-.5,-.1v-.8l-3.3,-.2l.3,1.8l-1.5,.7l1.3,1l-.1,1.5l-1.9,.4l-.9,-.2l-1.3,.9l-.7,-.1l-1.3,2.3Z" class="g8"/>
<path d="M402.5,296.2l-.6,-.1l.3,.4l.3,-.3Z" class="g8"/>
<path d="M397.6,291l-.5,.2v.7l.5,-.9Z" class="g8"/>
<path d="M396.1,290.9v-.3l-.1,.4l.1,-.1Z" class="g8"/>
<path d="M395.8,290.1l.3,.1l-.1,-.4l-.2,.3Z" class="g8"/>
<path d="M395.8,290.1l-.6,.5l.6,.6v-1.1Z" class="g8"/>
<path d="M396,289.6l.2,.5h.6l-.3,.2l.4,1.3l.4,-.6l.6,-.1l-.6,1.6l1,.9v.7l.6,-.1l1.1,.9l.4,-.5l.1,.7l1.2,.9l1.2,.3l-.5,1.1l1.2,.9v.6h.5l.3,.7l-.2,.5l1.2,-.1l.6,-.6v-.5l.8,-.2l1.8,-3l1.1,-.2l.4,.3l1.3,-.6l3.5,-.1l1.9,2.9l.9,.8l-.4,1.1l.8,.1l.5,2l-.7,.7l-.3,1l.6,.2l1.2,-1l1.2,-.1l.1,.5l1.4,-.7l.4,.5l.2,-.2l.1,.5l.8,.3l-.1,.8l.8,2.2l-.6,1.9l.8,-.2l.5,.2l.7,1l1.2,-.4l.9,-2.2h.5l.2,.9l.6,.3l-.3,-.5l.3,-.3l1.1,.4l.8,-2.5l.5,.1l-.3,-.9l-1.3,-.2l.3,-1.4h1.3l.3,.4l.5,-.3l.2,.5h.5l-.7,-2l-.9,-.3l.3,-1.1l.8,-.1l-.9,-.7l.3,-1.2l-1,.1l-.4,-.6l.2,-1.6l-.3,-.5l1,-1.4v-.6l-.7,-.2l-.1,-.4l-.6,.1l-.5,-3.4h-.8l-.1,.5l-.8,.1l.6,-1.3l.9,-.4V288l-1.3,-.5l-.4,-.9h-.7l.2,-1.9l-.9,-.9l.2,-.7l-1.1,-.9h-1l.2,1.1l-1.7,.6l-.3,.7l-3.1,-1l-1,.5l-1,1.2l-1.2,-1.7h-.5l-.7,1.1h-.6l-1,-.9l.3,-1.1h.3l-.4,-.2l-3.4,.1l-1.1,.6l-2.8,-1.3l-.4,.5l-.5,-.1v-.8l-3.3,-.2l.3,1.8l-1.5,.7l1.3,1l-.1,1.5l-1.9,.4l-.9,-.2l-1.3,.9l-.7,-.1l-1.3,2.3Zm6.5,6.6l-.6,-.1l.3,.4l.3,-.3ZM397.6,291l-.5,.2v.7l.5,-.9Zm-1.5,-.1v-.3l-.1,.4l.1,-.1Zm-.3,-.8l.3,.1l-.1,-.4l-.2,.3Zm0,0l-.6,.5l.6,.6v-1.1Z" class="g3"/>
<path d="M458.2,297.8l-.2,.8l.4,.4l-.7,1l.8,.7l.7,3.7l-.5,.2l-.1,.6l-.9,.5l-.7,1.8l-.1,1.9l-1.4,2.1l-.2,1.1l1.2,4.6h.3l.2,.5l.8,.1l.2,2.3l-2,.2l3.9,.9l1.5,.9l2.3,-1.4l4.2,-1l4.9,-2.7l4,-.4l1.2,-1.7h-.6L477,314l-1.3,-.6l-1.1,-2.1l.6,-2.3l-.7,-1.1l.6,-.9l-.2,-2.6l.7,-.6l-1.8,-2.2l.8,-.7l-.4,-.8l.6,-1.9l-.6,-.5l-1.2,.2l.4,-.3l-.3,-.2l.7,-.1l-.6,-.4l.5,-.1l.2,-3.3l-2.4,-1.7l.5,-2.3l-1.5,-.4l-1.6,1.3l-1.2,-.5H457.5l-.6,2.1l.4,.8l.5,.2l-.4,.5l.4,.3l.2,2.2l-.3,.7l.5,1.1Z" class="g4"/>
<path d="M458.2,297.8l-.2,.8l.4,.4l-.7,1l.8,.7l.7,3.7l-.5,.2l-.1,.6l-.9,.5l-.7,1.8l-.1,1.9l-1.4,2.1l-.2,1.1l1.2,4.6h.3l.2,.5l.8,.1l.2,2.3l-2,.2l3.9,.9l1.5,.9l2.3,-1.4l4.2,-1l4.9,-2.7l4,-.4l1.2,-1.7h-.6L477,314l-1.3,-.6l-1.1,-2.1l.6,-2.3l-.7,-1.1l.6,-.9l-.2,-2.6l.7,-.6l-1.8,-2.2l.8,-.7l-.4,-.8l.6,-1.9l-.6,-.5l-1.2,.2l.4,-.3l-.3,-.2l.7,-.1l-.6,-.4l.5,-.1l.2,-3.3l-2.4,-1.7l.5,-2.3l-1.5,-.4l-1.6,1.3l-1.2,-.5H457.5l-.6,2.1l.4,.8l.5,.2l-.4,.5l.4,.3l.2,2.2l-.3,.7l.5,1.1Z" class="g3"/>
<path d="M645.5,297.8l.1,4.6l-2.2,1.1l-.5,-.5l-2.1,.4v1.4l-.8,.6l-.2,.8l1.6,.7l1.8,.1l1.4,.9l.4,1.4l.8,.6l.2,.7l1.2,.4l.5,.9l1.6,.7l.7,.7l-.3,1l.3,1.9l.6,1.4l.9,.6l-.1,.7l1.5,-.2l1.4,.5l-.3,2.6l.7,.9l.2,.9h4.4l.9,.3l5.7,4h2.9l1.1,.5l.9,-.1l2.4,.7l1.5,-2.4l4.6,-2l2.1,1.6h3.4l1.3,-1.2l3.6,-.4l1.3,-1.7l2,-1.1l2.8,-.8l5,.2L716,305.4h-5l-15.4,-5.2l-1.7,-1.7l-.9,-.4l-.8,-.9l-.2,-1.3l-.9,-.3l-1.2,-1.8l-.9,-1.7l1.5,-2l-1.6,-.6l-3,.8l-1.4,-.2l-.1,-2.7l.4,-1.2l.7,-.6l2.1,-3.3l-.9,-1.5l-.8,-.2L684.1,278l-2.8,-2.2l-1.1,-1.9l-3.7,-1.7l-.6,-.7l-.9,.7l-1.7,-1l-.3,.6l-1.4,.4l-.5,-1.3l-1.8,1l-1.8,.3l-.9,-1.4l-1.2,-.2l-.6,-1l-2,3.8L661.7,272l-.9,.2l-.6,.8l-.8,-.4l-1.5,.3l-.6,1.5l.3,.8l-1.8,4.7l.1,1.3l-.8,-.2l-1.6,.3l-2.1,3.8l-1.2,1.1l.2,.9l-.6,1.5v1.9l-.9,1l-1,-1l-1.5,1.6l.2,2.2l-.5,.6l-.6,2.9Z" class="g4"/>
<path d="M645.5,297.8l.1,4.6l-2.2,1.1l-.5,-.5l-2.1,.4v1.4l-.8,.6l-.2,.8l1.6,.7l1.8,.1l1.4,.9l.4,1.4l.8,.6l.2,.7l1.2,.4l.5,.9l1.6,.7l.7,.7l-.3,1l.3,1.9l.6,1.4l.9,.6l-.1,.7l1.5,-.2l1.4,.5l-.3,2.6l.7,.9l.2,.9h4.4l.9,.3l5.7,4h2.9l1.1,.5l.9,-.1l2.4,.7l1.5,-2.4l4.6,-2l2.1,1.6h3.4l1.3,-1.2l3.6,-.4l1.3,-1.7l2,-1.1l2.8,-.8l5,.2L716,305.4h-5l-15.4,-5.2l-1.7,-1.7l-.9,-.4l-.8,-.9l-.2,-1.3l-.9,-.3l-1.2,-1.8l-.9,-1.7l1.5,-2l-1.6,-.6l-3,.8l-1.4,-.2l-.1,-2.7l.4,-1.2l.7,-.6l2.1,-3.3l-.9,-1.5l-.8,-.2L684.1,278l-2.8,-2.2l-1.2,-1.9l-3.6,-1.7l-.6,-.7l-.9,.7l-1.7,-1l-.3,.6l-1.4,.4l-.5,-1.3l-1.8,1l-1.8,.3l-.9,-1.4l-1.2,-.2l-.6,-1l-2,3.8L661.7,272l-.9,.2l-.6,.8l-.8,-.4l-1.5,.3l-.6,1.5l.3,.8l-1.8,4.7l.1,1.3l-.8,-.2l-1.6,.3l-2.1,3.8l-1.2,1.1l.2,.9l-.6,1.5v1.9l-.9,1l-1,-1l-1.5,1.6l.2,2.2l-.5,.6l-.6,2.9Z" class="g3"/>
<path d="M599.8,176.3l-1.4,1.5l.8,3.7l-.4,1.6l-1.3,2.2l1.6,5.2v41h60.4l.1,-.4l-2.3,-1.5l-.9,-1.5l-1.8,-.5l-1.1,-1.2l-1,-3l-.1,-2.5l1.4,-.2l-.8,-.3l-2.3,-2.8l-2.6,-6l-3.6,-6.2l.3,-1.1l-.8,-1.4V202l-.7,-.4l-.9,-1.7l.2,-.7l-.4,-.5h.6l-3.7,-4.3l-.3,-1.1l-.9,-1.2l.2,-.6l-.4,-1.5l-1.3,-1.4l.8,-1.4l-.1,-.7l.5,-.1l.9,3l2.2,2.6l.2,2.4l3.1,3.5l2.1,1.5l-.2,-.4l1.2,-1.3l-.1,-1.8l1.1,-2.3l.6,-3.4l.8,-1.1L646,178.3l-2.6,1.2h-1.3l-1.6,.5l-.3,-.8l-.4,.8l-.3,-.3l-1.2,.4l-3.2,-2l-.8,-1l-1.8,.5l-2.7,-.9l-2.6,.8l-.8,-.1l-.6,1.1l-.9,-.1l-3.1,2.3l-2,.6l-3.2,-1.6l-2.7,-.1l-.2,-.8l-1,.4l-1.2,-.2l-.5,-1l-7.4,-1.5l-3,.7l-.6,-.1l-.2,-.8Z" class="g5"/>
<path d="M644.5,200.5l.3,.2l.2,-.1l-.5,-.1Z" class="g5"/>
<path d="M643.9,200.2l-.3,-.2l.1,.3l.2,-.1Z" class="g5"/>
<path d="M643.5,199.6h-.2l.1,.2l.1,-.2Z" class="g5"/>
<path d="M599.8,176.3l-1.4,1.5l.8,3.7l-.4,1.6l-1.3,2.2l1.6,5.2v41h60.4l.1,-.4l-2.3,-1.5l-.9,-1.5l-1.8,-.5l-1.1,-1.2l-1,-3l-.1,-2.5l1.4,-.2l-.8,-.3l-2.3,-2.8l-2.6,-6l-3.6,-6.2l.3,-1.1l-.8,-1.4V202l-.7,-.4l-.9,-1.7l.2,-.7l-.4,-.5h.6l-3.7,-4.3l-.3,-1.1l-.9,-1.2l.2,-.6l-.4,-1.5l-1.3,-1.4l.8,-1.4l-.1,-.7l.5,-.1l.9,3l2.2,2.6l.2,2.4l3.1,3.5l2.1,1.5l-.2,-.4l1.2,-1.3l-.1,-1.8l1.1,-2.3l.6,-3.4l.8,-1.1L646,178.3l-2.6,1.2h-1.3l-1.6,.5l-.3,-.8l-.4,.8l-.3,-.3l-1.2,.4l-3.2,-2l-.8,-1l-1.8,.5l-2.7,-.9l-2.6,.8l-.8,-.1l-.6,1.1l-.9,-.1l-3.1,2.3l-2,.6l-3.2,-1.6l-2.7,-.1l-.2,-.8l-1,.4l-1.2,-.2l-.5,-1l-7.4,-1.5l-3,.7l-.6,-.1l-.2,-.8Zm44.7,24.2l.3,.2l.2,-.1l-.5,-.1Zm-.6,-.3l-.3,-.2l.1,.3l.2,-.1Zm-.4,-.6h-.2l.1,.2l.1,-.2Z" class="g3"/>
<path d="M534,375.7l1,1.1l.4,-.1l-.2,.5l1.2,-.3l1.1,-.9l2.3,.4l3.3,-.4l3.2,.4l10,-.1v.7l.7,.7l-.3,1.1l.5,1.7l1,1.8l-.1,.9l1.2,1l1.6,3.3l.6,.3l2.5,-.2l.6,-.6l1.6,.1v-.4h1.2l.1,.4h3l-.1,-2.1l.6,-.1l.3,-.6l-.3,-.7l.3,-1.6h3.9l.1,-.5l1.5,.1l-.3,1.9l6.2,-.1l.4,1.4l-.5,2l1,2.9l-.8,4.7l.4,1.2l1.5,1.4l.8,2.4v1.9l-.8,.6l.4,2.1l1.5,-1.2l.8,.4l2.5,-.1l1.2,-.8l2.2,.5l1,-.8l.5,.8l1.1,.3l.1,.9l-.5,.6l.6,.3l.9,.1l1.4,-1l2.5,-.4l-.4,.9l.3,1.4l.8,.3v.5l.8,-.3l.3,.4h.9l.5,.7l4.6,.2l.6,-.7l.1,-1.2l1,-.2v1.1l1.3,.8l.2,1.2l.6,.5L614,409l.2,.7l1.8,.3l.6,.5l.6,2l.5,-.4l.7,.7l1,2.3l.6,-.2l.4,.4l2,-1.2l.5,.3l-.4,.7l1.1,.2v-6.8l-1.7,.6l.2,.9l-.2,.2l-1.1,-.5l-1.2,.1l-1.4,-2.1l-1.6,-.9l-.3,-1.3l.5,-2.4l.6,-1.9l.5,-.3l-.6,-2.3l.6,-2.2l-.8,-2.4l1.8,-3l.3,-1.5l9.5,-1.1l-2.1,-3.5l-.7,-2.8l-3.1,-2.9l-.7,-1.3l.8,-3l-1.4,-3.2l-.1,-4.2l-.8,-2.4l.1,-3.3L619,359.9l-.3,-1.3l1.3,-.9l.7,-3l1.7,-1.4l-.1,-2.2l.4,-.3l.2,-2.2l-.5,-.8l.7,-.6V346l1.1,-1.6l-.3,-1.4l.3,-.8l1.1,-.4l.4,-1.2l1.9,-1.2l3.1,-3.1l.6,-1l-1.4,-1.2l-.5,-.1l-.2,.3l-.9,-.5l.8,-2.2l-.7,-.9l.9,-2.2h-.4l-.6,-1l-1,.4v-1.2l-1.7,-.5l-.2,-.8L623.5,324l.2,-.8l-.4,-.3l-1.3,-.5l-1.3,1.7l-1.1,-.6h-1l-.2,-.5l-.7,.9l-1.3,.6l-1.8,-.9l-.1,-.5l-1.2,-.1l-.1,-.9l-.6,-.6l-.4,.1l-.7,-1.2l-1.6,-.6l-1,.3l-.3,.5l-.6,-.3l-1.2,.2l-2,-1l-1.1,.4l-1.9,-.9l-1,.5l-.1,1.2h-.8l-.5,.5l-.5,-.3l-1.2,.4l-1,-.9l-.8,-.2l.1,.5l-1.2,.6l-2.9,.7l-1,.9l-2.2,-1.3l-1,.8l-.4,1.1l-.4,-.1l-.3,1.4l-1.5,.5l-2.6,-.9h-2.6l-1.7,-.8l-1.6,.2L575.3,322l-2.5,-1.7l-2.1,-.1l-1.8,1.2l-1.5,2.4l-1.1,.3l.5,1.9l-.4,1.1l.3,2.8l-2.8,5v3l-1.3,3.7l.6,2.6l-1.4,2.9l.2,1.9l-1.8,2.1l-1.4,.6l-1.4,1.2l-1.3,2.7l-1.7,1.6l-.2,1l.2,4.9l-1.6,3.1l-1.8,.7l-.6,1.2l-1.1,.2l-1.9,2.5l-.8,.5l-1,-.3l-.4,.2l-.2,-1.7l.6,-.6l-.5,-.8l-2.3,1.2l-.8,-.5l-.5,1.8l-.7,-.1l-.6,.8l-1.6,-1.6l-.1,.5l-1.2,.3l-.7,1l-1.3,.7l.3,.3v3.1l-1.6,.1Z" class="g4"/>
<path d="M537.7,376.2h-.6l-.1,.5l.7,-.5Z" class="g4"/>
<path d="M535.4,376.8l-.4,.1h.4v-.1Z" class="g4"/>
<path d="M534,375.7l1,1.1l.4,-.1l-.2,.5l1.2,-.3l1.1,-.9l2.3,.4l3.3,-.4l3.2,.4l10,-.1v.7l.7,.7l-.3,1.1l.5,1.7l1,1.8l-.1,.9l1.2,1l1.6,3.3l.6,.3l2.5,-.2l.6,-.6l1.6,.1v-.4h1.2l.1,.4h3l-.1,-2.1l.6,-.1l.3,-.6l-.3,-.7l.3,-1.6h3.9l.1,-.5l1.5,.1l-.3,1.9l6.2,-.1l.4,1.4l-.5,2l1,2.9l-.8,4.7l.4,1.2l1.5,1.4l.8,2.4v1.9l-.8,.6l.4,2.1l1.5,-1.2l.8,.4l2.5,-.1l1.2,-.8l2.2,.5l1,-.8l.5,.8l1.1,.3l.1,.9l-.5,.6l.6,.3l.9,.1l1.4,-1l2.5,-.4l-.4,.9l.3,1.4l.8,.3v.5l.8,-.3l.3,.4h.9l.5,.7l4.6,.2l.6,-.7l.1,-1.2l1,-.2v1.1l1.3,.8l.2,1.2l.6,.5L614,409l.2,.7l1.8,.3l.6,.5l.6,2l.5,-.4l.7,.7l1,2.3l.6,-.2l.4,.4l2,-1.2l.5,.3l-.4,.7l1.1,.2v-6.8l-1.7,.6l.2,.9l-.2,.2l-1.1,-.5l-1.2,.1l-1.4,-2.1l-1.6,-.9l-.3,-1.3l.5,-2.4l.6,-1.9l.5,-.3l-.6,-2.3l.6,-2.2l-.8,-2.4l1.8,-3l.3,-1.5l9.5,-1.1l-2.1,-3.5l-.7,-2.8l-3.1,-2.9l-.7,-1.3l.8,-3l-1.4,-3.2l-.1,-4.2l-.8,-2.4l.1,-3.3L619,359.9l-.3,-1.3l1.3,-.9l.7,-3l1.7,-1.4l-.1,-2.2l.4,-.3l.2,-2.2l-.5,-.8l.7,-.6V346l1.1,-1.6l-.3,-1.4l.3,-.8l1.1,-.4l.4,-1.2l1.9,-1.2l3.1,-3.1l.6,-1l-1.4,-1.2l-.5,-.1l-.2,.3l-.9,-.5l.8,-2.2l-.7,-.9l.9,-2.2h-.4l-.6,-1l-1,.4v-1.2l-1.7,-.5l-.2,-.8L623.5,324l.2,-.8l-.4,-.3l-1.3,-.5l-1.3,1.7l-1.1,-.6h-1l-.2,-.5l-.7,.9l-1.3,.6l-1.8,-.9l-.1,-.5l-1.2,-.1l-.1,-.9l-.6,-.6l-.4,.1l-.7,-1.2l-1.6,-.6l-1,.3l-.3,.5l-.6,-.3l-1.2,.2l-2,-1l-1.1,.4l-1.9,-.9l-1,.5l-.1,1.2h-.8l-.5,.5l-.5,-.3l-1.2,.4l-1,-.9l-.8,-.2l.1,.5l-1.2,.6l-2.9,.7l-1,.9l-2.2,-1.3l-1,.8l-.4,1.1l-.4,-.1l-.3,1.4l-1.5,.5l-2.6,-.9h-2.6l-1.7,-.8l-1.6,.2L575.3,322l-2.5,-1.7l-2.1,-.1l-1.8,1.2l-1.5,2.4l-1.1,.3l.5,1.9l-.4,1.1l.3,2.8l-2.8,5v3l-1.3,3.7l.6,2.6l-1.4,2.9l.2,1.9l-1.8,2.1l-1.4,.6l-1.4,1.2l-1.3,2.7l-1.7,1.6l-.2,1l.2,4.9l-1.6,3.1l-1.8,.7l-.6,1.2l-1.1,.2l-1.9,2.5l-.8,.5l-1,-.3l-.4,.2l-.2,-1.7l.6,-.6l-.5,-.8l-2.3,1.2l-.8,-.5l-.5,1.8l-.7,-.1l-.6,.8l-1.6,-1.6l-.1,.5l-1.2,.3l-.7,1l-1.3,.7l.3,.3v3.1l-1.6,.1Zm3.7,.5h-.6l-.1,.5l.7,-.5Zm-2.3,.6l-.4,.1h.4v-.1Z" class="g3"/>
<path d="M528.6,366.4l3.3,3.1v.7l1.1,1.7l1,-1.3l.6,.1l.3,-1l1.9,-.5l-.1,-.7l.8,.2l.8,1.2l.4,-.2l1.5,1.6l.6,-.8l.7,.1l.5,-1.8l.8,.5l2.3,-1.2l.5,.8l-.6,.6l.2,1.7l.4,-.2l1,.3l.8,-.5l1.9,-2.5l1.3,-.4l.4,-1l1.7,-.5l1.7,-3.3l-.2,-4.9l.2,-1l1.7,-1.6l1.3,-2.7l1.4,-1.2l1.4,-.6L562,349l-.2,-1.9l1.4,-2.9l-.6,-2.6l1.3,-3.7v-3l2.8,-5v-1.3l-.5,-.6l-.2,-.3l-1.2,.3l-.4,.6l-.4,-.5l-1.3,.1l-.1,-.4l-1.9,-.4l-1.2,.7l-1.7,-.1l-1.6,.5l-.3,3.2l-1.7,3.4h-.5l-.2,1.1l.5,1.4l-.4,.3l-.2,-.6l-.7,-.1l-.6,-.6l-1.4,-.4l-.7,.4l-.8,-.7l-1.4,.2L546,335l-.7,.3l-5.8,-.1l-.8,2.4l.6,2l-.3,.5l1.8,-.3l1.4,-.8l1.9,.2l1.5,2.4l-.5,1.4l-1.5,.5l-1.1,1.8l.6,1.1l-.4,.7l.2,.5l1,.2l.1,.8l.8,-.1l1,.9l-.5,1.6l.1,2.1l.4,.4l-.2,.7l-.5,.3l.2,1.4l-.9,.5l.1,.8l-.6,.4l.5,.6l-.7,.9l-1.2,-.2l.2,-.6l-.9,-1.2l-1.3,1.6l-2.4,-.6l-.8,-1.9l-1.3,-.7l-.8,.5l.3,2.6h-2.3l-.5,-.4l-1.1,.6l-.8,-.6l.4,1.4l-.6,1.2l.6,-.2l.7,1l-.3,.5l1.3,.8l-.7,1.5l.4,.6l-.4,.3l-1.4,-1.6h-.4l-.2,.8l-1.2,.7l-.4,1.2Z" class="g8"/>
<path d="M528.6,366.4l3.3,3.1v.7l1.1,1.7l1,-1.3l.6,.1l.3,-1l1.9,-.5l-.1,-.7l.8,.2l.8,1.2l.4,-.2l1.5,1.6l.6,-.8l.7,.1l.5,-1.8l.8,.5l2.3,-1.2l.5,.8l-.6,.6l.2,1.7l.4,-.2l1,.3l.8,-.5l1.9,-2.5l1.3,-.4l.4,-1l1.7,-.5l1.7,-3.3l-.2,-4.9l.2,-1l1.7,-1.6l1.3,-2.7l1.4,-1.2l1.4,-.6L562,349l-.2,-1.9l1.4,-2.9l-.6,-2.6l1.3,-3.7v-3l2.8,-5v-1.3l-.5,-.6l-.2,-.3l-1.2,.3l-.4,.6l-.4,-.5l-1.3,.1l-.1,-.4l-1.9,-.4l-1.2,.7l-1.7,-.1l-1.6,.5l-.3,3.2l-1.7,3.4h-.5l-.2,1.1l.5,1.4l-.4,.3l-.2,-.6l-.7,-.1l-.6,-.6l-1.4,-.4l-.7,.4l-.8,-.7l-1.4,.2L546,335l-.7,.3l-5.8,-.1l-.8,2.4l.6,2l-.3,.5l1.8,-.3l1.4,-.8l1.9,.2l1.5,2.4l-.5,1.4l-1.5,.5l-1.1,1.8l.6,1.1l-.4,.7l.2,.5l1,.2l.1,.8l.8,-.1l1,.9l-.5,1.6l.1,2.1l.4,.4l-.2,.7l-.5,.3l.2,1.4l-.9,.5l.1,.8l-.6,.4l.5,.6l-.7,.9l-1.2,-.2l.2,-.6l-.9,-1.2l-1.3,1.6l-2.4,-.6l-.8,-1.9l-1.3,-.7l-.8,.5l.3,2.6h-2.3l-.5,-.4l-1.1,.6l-.8,-.6l.4,1.4l-.6,1.2l.6,-.2l.7,1l-.3,.5l1.3,.8l-.7,1.5l.4,.6l-.4,.3l-1.4,-1.6h-.4l-.2,.8l-1.2,.7l-.4,1.2Z" class="g3"/>
<path d="M548.2,226l1,5.5v2.8l2.2,2.9l-.5,.4l.3,.6l2.1,2.3l-1.3,2.3l-.8,6.3l-.5,10l-5.7,6.2l-2.6,3.6l-.3,1.7l-.6,.4v.5l-1.1,.7l.9,3.7l2.2,3.3h1.9l.5,.6v.9l1.5,.8l.2,2.4l.8,.3l.1,1.3l.3,.3l-.4,4.2l.6,2.4l1.8,2.2l.9,.6l-1.3,.3l-2.2,-.4l-1,.4l-1.4,-.4h-1.5l-1.2,1.9l3.9,4.3l.6,-.1l.5,.7l1.2,.4l.8,2.9l1.1,1.6l-.4,1.1l1.5,.4l3,-1.2l.2,-.7l.5,-.2l1.4,1.6l4.3,-2.3l4.9,-.3l.3,-.9l.8,-.3l1.5,-2l-1.4,-.9l.3,-.4l.9,-.5l1.9,.1l3.3,-.8h1.7l.5,-.9l.6,.1v-.4l1.3,-.7l.4,-1.1l1.3,-1.3l.5,.1l.9,-1.3l.8,-.1l.5,-1l-.3,-1l.6,-1.1l3.5,-.9l1.8,.4l.5,-1.9l-.2,-.6l-.8,.1l-1.1,-1.2l.4,-2.2h-.9l-.4,-2l.3,-1l-1.3,-.6l-.3,.4l-1,.2l-.6,-1l.5,-1.2l1.8,-1.5l-.9,-2.3l2.5,-2.1l-.8,-.6l.1,-1l-.3,-.1l.1,-.5l1.6,-.5l-.2,-.9l1.6,-1.9l-.4,-1.7l1,-.9l1.1,.1l1.3,-.4l2.1,.4V245.1L553.3,223.5l-5.1,2.5Z" class="g7"/>
<path d="M548.2,226l1,5.5v2.8l2.2,2.9l-.5,.4l.3,.6l2.1,2.3l-1.3,2.3l-.8,6.3l-.5,10l-5.7,6.2l-2.6,3.6l-.3,1.7l-.6,.4v.5l-1.1,.7l.9,3.7l2.2,3.3h1.9l.5,.6v.9l1.5,.8l.2,2.4l.8,.3l.1,1.3l.3,.3l-.4,4.2l.6,2.4l1.8,2.2l.9,.6l-1.3,.3l-2.2,-.4l-1,.4l-1.4,-.4h-1.5l-1.2,1.9l3.9,4.3l.6,-.1l.5,.7l1.2,.4l.8,2.9l1.1,1.6l-.4,1.1l1.5,.4l3,-1.2l.2,-.7l.5,-.2l1.4,1.6l4.3,-2.3l4.9,-.3l.3,-.9l.8,-.3l1.5,-2l-1.4,-.9l.3,-.4l.9,-.5l1.9,.1l3.3,-.8h1.7l.5,-.9l.6,.1v-.4l1.3,-.7l.4,-1.1l1.3,-1.3l.5,.1l.9,-1.3l.8,-.1l.5,-1l-.3,-1l.6,-1.1l3.5,-.9l1.8,.4l.5,-1.9l-.2,-.6l-.8,.1l-1.1,-1.2l.4,-2.2h-.9l-.4,-2l.3,-1l-1.3,-.6l-.3,.4l-1,.2l-.6,-1l.5,-1.2l1.8,-1.5l-.9,-2.3l2.5,-2.1l-.8,-.6l.1,-1l-.3,-.1l.1,-.5l1.6,-.5l-.2,-.9l1.6,-1.9l-.4,-1.7l1,-.9l1.1,.1l1.3,-.4l2.1,.4V245.1L553.3,223.5l-5.1,2.5Z" class="g3"/>
<path d="M515.6,321.8v1l-.5,.5l1,.2l-.2,-.9l.6,.6l-.1,-.6l.4,-.2l1,3.2l1.3,.5l.9,-.3l.1,-.5l.5,.6l.6,-.3l-.3,.6l.7,-.1l-.5,.3l.2,.7l-.6,.1l.2,.8h.5l-.4,.3l1.1,1l.5,1.3l-.8,2.9l.2,1.4l.7,.3h7v-.6l1.7,-.1l5.3,.5l2.1,-.3h.5l.2,.5l5.8,.1l.7,-.3l1.8,1.1l1.6,-.1l.6,.6l.7,-.4l2.7,1.1v.5l.6,-.2l-.5,-1.4l.2,-1.1l.6,-.1l-.6,-1.2v-2.3l-1,-1h-.4l-2.8,-3.1l-1,-1.6l.6,-.2l-.5,-1.2l-1.8,-1.6l-.2,-2.9l-.8,-.5l.5,-1.2v-1.9l-.7,-.2l-.3,-.8l1.6,-.9l2.4,-4.3v-.7l1.8,-1.9l.1,-.7l-1.1,-1.6l-.8,-2.9l-1.2,-.4l-.5,-.7l-.6,.1l-1.4,-1.2l-.5,-1.3l-1.5,-1.2l-.4,-.9l1.1,-1.6h1.5l1.4,.4l1,-.4l2.2,.4l1.3,-.3l-.9,-.6L549,292.4l-.6,-2.4l.1,-2.1l.4,-.8l-.4,-.8l.1,-1.5l-.2,-.6l-.8,-.3l-.2,-2.4l-1.5,-.8v-.9l-.5,-.6h-1.9l.5,3.4l1.5,.3l1.1,1l-.7,2.3l.5,.4l-.1,.7l-2.5,1.4l-.8,-.3l-1.4,1.7l-.9,1.8l.2,.6l-.6,1.8l-1,.6l-.1,.7l.4,.4l-.4,1.3l-1.8,1l.1,1.4l-.5,1.9l-2.8,1.6l-.1,2.2l-.9,1.5l-.1,1l-1.1,1.2l.1,1.2h-.6l-.8,1l-.2,1.3l-.9,.5l-1.3,-.2v-.7l-.9,-.1l-.5,-.8l.1,-.4l-1.3,-1.1l-.4,1.2l-1.4,.1l-.4,-.6l-1.3,1.3l-.6,-.1l-.3,1.4l-1.3,.3l-.1,.7l-.5,-.2l-.3,.8l-2.1,1.8l-.1,.8l.4,.6l-.6,2l-1.1,1.9Z" class="g8"/>
<path d="M521,326.8l-.3,.1l.4,.3l-.1,-.4Z" class="g8"/>
<path d="M520.3,325.9l-.2,.1l.3,.1l-.1,-.2Z" class="g8"/>
<path d="M519.4,326.3l.7,.1l-.3,-.5l-.6,.2l.2,.2Z" class="g8"/>
<path d="M516.9,323l-.4,-.4l.5,.7l-.1,-.3Z" class="g8"/>
<path d="M515.4,322.7l.1,-.2l-.4,.3l.3,-.1Z" class="g8"/>
<path d="M515.6,321.8v1l-.5,.5l1,.2l-.2,-.9l.6,.6l-.1,-.6l.4,-.2l1,3.2l1.3,.5l.9,-.3l.1,-.5l.5,.6l.6,-.3l-.3,.6l.7,-.1l-.5,.3l.2,.7l-.6,.1l.2,.8h.5l-.4,.3l1.1,1l.5,1.3l-.8,2.9l.2,1.4l.7,.3h7v-.6l1.7,-.1l5.3,.5l2.1,-.3h.5l.2,.5l5.8,.1l.7,-.3l1.8,1.1l1.6,-.1l.6,.6l.7,-.4l2.7,1.1v.5l.6,-.2l-.5,-1.4l.2,-1.1l.6,-.1l-.6,-1.2v-2.3l-1,-1h-.4l-2.8,-3.1l-1,-1.6l.6,-.2l-.5,-1.2l-1.8,-1.6l-.2,-2.9l-.8,-.5l.5,-1.2v-1.9l-.7,-.2l-.3,-.8l1.6,-.9l2.4,-4.3v-.7l1.8,-1.9l.1,-.7l-1.1,-1.6l-.8,-2.9l-1.2,-.4l-.5,-.7l-.6,.1l-1.4,-1.2l-.5,-1.3l-1.5,-1.2l-.4,-.9l1.1,-1.6h1.5l1.4,.4l1,-.4l2.2,.4l1.3,-.3l-.9,-.6L549,292.4l-.6,-2.4l.1,-2.1l.4,-.8l-.4,-.8l.1,-1.5l-.2,-.6l-.8,-.3l-.2,-2.4l-1.5,-.8v-.9l-.5,-.6h-1.9l.5,3.4l1.5,.3l1.1,1l-.7,2.3l.5,.4l-.1,.7l-2.5,1.4l-.8,-.3l-1.4,1.7l-.9,1.8l.2,.6l-.6,1.8l-1,.6l-.1,.7l.4,.4l-.4,1.3l-1.8,1l.1,1.4l-.5,1.9l-2.8,1.6l-.1,2.2l-.9,1.5l-.1,1l-1.1,1.2l.1,1.2h-.6l-.8,1l-.2,1.3l-.9,.5l-1.3,-.2v-.7l-.9,-.1l-.5,-.8l.1,-.4l-1.3,-1.1l-.4,1.2l-1.4,.1l-.4,-.6l-1.3,1.3l-.6,-.1l-.3,1.4l-1.3,.3l-.1,.7l-.5,-.2l-.3,.8l-2.1,1.8l-.1,.8l.4,.6l-.6,2l-1.1,1.9Zm5.4,5l-.3,.1l.4,.3l-.1,-.4Zm-.7,-.9l-.2,.1l.3,.1l-.1,-.2Zm-.9,.4l.7,.1l-.3,-.5l-.6,.2l.2,.2ZM516.9,323l-.4,-.4l.5,.7l-.1,-.3Zm-1.5,-.3l.1,-.2l-.4,.3l.3,-.1Z" class="g3"/>
<path d="M619.6,360.3l-.2,.2l1.3,1.3l-.1,3.9l.8,1.8l.1,1.3l1.8,.2l2.4,-2.1l.1,-.8l.8,-.6l.2,-1.1l1.1,-.6v-.6l.9,-.3v-1.5l-.9,.1l-.5,-.5l-.3,.3l-.3,-.2v-.8l.4,-.3l-.5,-.2l.6,-1.2l-.7,-.6l-1.4,.7l-.9,-.6l-.2,1.9l-1.1,.6l-1.7,.1l-.2,-.9l-1.3,-.3l-.2,.8Z" class="g4"/>
<path d="M619.6,360.3l-.2,.2l1.3,1.3l-.1,3.9l.8,1.8l.1,1.3l1.8,.2l2.4,-2.1l.1,-.8l.8,-.6l.2,-1.1l1.1,-.6v-.6l.9,-.3v-1.5l-.9,.1l-.5,-.5l-.3,.3l-.3,-.2v-.8l.4,-.3l-.5,-.2l.6,-1.2l-.7,-.6l-1.4,.7l-.9,-.6l-.2,1.9l-1.1,.6l-1.7,.1l-.2,-.9l-1.3,-.3l-.2,.8Z" class="g3"/>
<path d="M443.8,292.9l.8,.8l1.2,-.1l.3,1l.5,.3v.8l1,.3l-.2,.3l.6,.5l.9,-.4l.1,.6l.9,.2l.2,-.7l.8,-.6l.4,.3l2.1,-.8l1.6,.2l.2,.3l.5,-.4v.5l.9,.5l1.2,1.7l.4,-.4l-.5,-1.1l.3,-.7l-.2,-2.2l-.4,-.3l.4,-.5l-.5,-.2l-.4,-.8l.6,-2.1h10.2l1.2,.5l1.6,-1.3l3.9,.8l.1,.5l2,-.4l.4,-.5l.6,.2l.3,-1.2h.9l.3,-.9l1,.3l2.2,-.1l1.4,-1.3l.5,-1.2L482.4,283l1,-.7l-.8,-1.3l-.6,-.1l-.6,.7l-1.5,-.1l-2.3,-1.9H477l-.1,-2l1.5,.1L475.8,276l-.8,-.1L473.8,274l.1,-1l-1.2,-1.5l.3,-2.4l-.9,.1l-1.5,-.5l-.7,.4l-.3,-.5h-1.4l-1.7,1.6l-1.3,.3l-2.4,1.4l-1,-.1l-.1,1.5l-.5,.3l-1.9,-.8l-1.9,1.3l-.1,2.1l-.8,.2l-.4,-.4h-.7v2.1h-1v.7l-1.8,-1.2h-.8V277l-.7,.5l-.9,.9l.2,.2l-.6,.2l.6,.9l-.1,1.3l-1.2,.1l.6,.9l-.4,.6l.2,.6l-.4,-.1l-.8,1.4l-2.5,.5l-1.2,.8l.5,.4l-.1,.5l.4,1l-.6,1.5l-.9,.4l.4,1.3l-.5,2Z" class="g8"/>
<path d="M443.8,292.9l.8,.8l1.2,-.1l.3,1l.5,.3v.8l1,.3l-.2,.3l.6,.5l.9,-.4l.1,.6l.9,.2l.2,-.7l.8,-.6l.4,.3l2.1,-.8l1.6,.2l.2,.3l.5,-.4v.5l.9,.5l1.2,1.7l.4,-.4l-.5,-1.1l.3,-.7l-.2,-2.2l-.4,-.3l.4,-.5l-.5,-.2l-.4,-.8l.6,-2.1h10.2l1.2,.5l1.6,-1.3l3.9,.8l.1,.5l2,-.4l.4,-.5l.6,.2l.3,-1.2h.9l.3,-.9l1,.3l2.2,-.1l1.4,-1.3l.5,-1.2L482.4,283l1,-.7l-.8,-1.3l-.6,-.1l-.6,.7l-1.5,-.1l-2.3,-1.9H477l-.1,-2l1.5,.1L475.8,276l-.8,-.1L473.8,274l.1,-1l-1.2,-1.5l.3,-2.4l-.9,.1l-1.5,-.5l-.7,.4l-.3,-.5h-1.4l-1.7,1.6l-1.3,.3l-2.4,1.4l-1,-.1l-.1,1.5l-.5,.3l-1.9,-.8l-1.9,1.3l-.1,2.1l-.8,.2l-.4,-.4h-.7v2.1h-1v.7l-1.8,-1.2h-.8V277l-.7,.5l-.9,.9l.2,.2l-.6,.2l.6,.9l-.1,1.3l-1.2,.1l.6,.9l-.4,.6l.2,.6l-.4,-.1l-.8,1.4l-2.5,.5l-1.2,.8l.5,.4l-.1,.5l.4,1l-.6,1.5l-.9,.4l.4,1.3l-.5,2Z" class="g3"/>
<path d="M573.6,476.4l2,1.5l.7,1.6l.7,.7l-.1,1.1l.9,1.3l.2,1.5l-1.3,2.2l.4,2l1,-.4l1.3,.4h2.9l.4,-.4v-.7l1.4,-.2l1,-1.7l1.1,-.8l.4,.1l.9,-1.1L588,481l.9,-1.5l2.4,-.2l2.2,2l1.5,-.1l.9,.8l1.6,.4l1.8,-.6l1.4,.3l1,-.5l1.9,-4.5l-.2,-.7l2.8,-.7l1,-1.3l1.3,-.8l.6,-3.1l.5,-.2l.3,-.7l1,-.8l1,-.1l.4,-.9l.7,.1l3.1,-3.7l.8,.1l2.1,-.7l.6,-1.3l1.7,-.1l-.6,-.8l-.9,-.1l-.3,-.5l.3,-.8l-.4,-.2l-2.1,-.8l-.4,.3l-2.5,-.6l-.5,-1.3l-1.1,-1.3l.1,-3.1l-2.2,-.1l-.4,-2.3l-2.4,-.7l-2.1,-1.5l-.1,-.5l-.7,-.2l-1,-2.4l.1,-.7l-3.4,-4.8l-.3,-1.5l-1,.3l-.5,-.3l-1.2,.6l-.8,.9l-.7,-.6l-1.2,.3l-3,2.6l-.5,-1.4l-1.3,-1.3l-9.2,1.7h-2.3v20h-5.1v15.3Z" class="g2"/>
<path d="M573.6,476.4l2,1.5l.7,1.6l.7,.7l-.1,1.1l.9,1.3l.2,1.5l-1.3,2.2l.4,2l1,-.4l1.3,.4h2.9l.4,-.4v-.7l1.4,-.2l1,-1.7l1.1,-.8l.4,.1l.9,-1.1L588,481l.9,-1.5l2.4,-.2l2.2,2l1.5,-.1l.9,.8l1.6,.4l1.8,-.6l1.4,.3l1,-.5l1.9,-4.5l-.2,-.7l2.8,-.7l1,-1.3l1.3,-.8l.6,-3.1l.5,-.2l.3,-.7l1,-.8l1,-.1l.4,-.9l.7,.1l3.1,-3.7l.8,.1l2.1,-.7l.6,-1.3l1.7,-.1l-.6,-.8l-.9,-.1l-.3,-.5l.3,-.8l-.4,-.2l-2.1,-.8l-.4,.3l-2.5,-.6l-.5,-1.3l-1.1,-1.3l.1,-3.1l-2.2,-.1l-.4,-2.3l-2.4,-.7l-2.1,-1.5l-.1,-.5l-.7,-.2l-1,-2.4l.1,-.7l-3.4,-4.8l-.3,-1.5l-1,.3l-.5,-.3l-1.2,.6l-.8,.9l-.7,-.6l-1.2,.3l-3,2.6l-.5,-1.4l-1.3,-1.3l-9.2,1.7h-2.3v20h-5.1v15.3Z" class="g3"/>
<path d="M476.5,290l-.7,3.1l3,2v2.7l1.4,2.3l.2,7.9l-.2,2.6h-.4l.1,1.6L481,314l-.8,.5l5.5,-.7l.4,-1.7l-.4,-1.2l.4,-.5l-.2,-2h.2l-.6,-2.4l.4,-1.5l-.3,-.9l.4,-3.7l1.6,-.1l.3,-1.9l1,-1.1l-.1,-.6l1.4,-.8l.4,-1.1l-.5,-.7l.3,-.7l.8,.1l.3,-.9l-.6,-2.8l-1.4,-1.7l.7,-1.2l-4,-3.7l-.6,.6l-1.6,.2l.4,1.2l-.4,1.1l-1.8,2l-2.2,.1l-1,-.3l-.3,.9h-.9l-.3,1.2l-.6,-.2l-.4,.5Z" class="g9"/>
<path d="M476.5,290l-.7,3.1l3,2v2.7l1.4,2.3l.2,7.9l-.2,2.6h-.4l.1,1.6L481,314l-.8,.5l5.5,-.7l.4,-1.7l-.4,-1.2l.4,-.5l-.2,-2h.2l-.6,-2.4l.4,-1.5l-.3,-.9l.4,-3.7l1.6,-.1l.3,-1.9l1,-1.1l-.1,-.6l1.4,-.8l.4,-1.1l-.5,-.7l.3,-.7l.8,.1l.3,-.9l-.6,-2.8l-1.4,-1.7l.7,-1.2l-4,-3.7l-.6,.6l-1.6,.2l.4,1.2l-.4,1.1l-1.8,2l-2.2,.1l-1,-.3l-.3,.9h-.9l-.3,1.2l-.6,-.2l-.4,.5Z" class="g3"/>
<path d="M427.8,201.7l19.5,13.2l30.5,21.4l.1,2.2l.7,-.1l1.4,.8l1,1.6l.7,.4l1.8,-.4l.5,1.3l1.6,-.1l.4,.5l2.5,.8v2.1l-.7,1.7l1.4,.9l12.3,-2.6l8.4,-7.6l23,-14.7l-2,-4.1l-.9,.3l-2.7,-2l-2.7,.2l-.7,-.7l-1,-1.8v-2.2l-3.2,-4.7l.6,-1.1l1.8,-.7l.2,-.8l.1,-1.2l-.7,-2.2l.4,-1.8l-.2,-.1l.5,-.6l.2,-1.2l-.7,-2.3l.4,-2.7l-.7,-3.9l-1.9,-3.9v-.5l.8,-.3L518,173.7l-3.6,-2.4l-.2,-2L513,167.9l.1,-.2l-1.8,-1v-1l-1.1,-2.3v-1.6l.6,-.8l.8,-.1l.3,-1.3l1.5,-.9l.7,-1.1l-.2,-1.1l1,-1.9l-.7,-.6l.3,-.9l-.6,-2.6l.8,-3.4l-1.3,-.4l1.5,-.9l-.1,-.9l1.2,-.3l-.1,-.8l-1.1,.3l-1.1,-.4l-1.9,.7l-.4,-.2v-.5l-2.8,-.9l.2,.4l-.5,.7l-1.2,.3l-2.6,-1.3l-.7,.3l-.2,.7l-2.8,.7l-1.6,1.1l-1.1,-.2l-.2,-.7l-1.6,-.7l-4.6,-.2l-2.1,1l-1.3,-.3l-.3,.4l-1.3,-.4l-1.8,1.4l-1.1,-.3l-1.8,.5l-3.3,.1l-5.1,2.2l-2.2,2.5l-.9,-.1l-.3,-.5h-.7l-.9,1.1l-.9,-.3l-1,.5l-.9,.8l-.4,1.2l-2.5,1.5l-2.3,.2l2.4,2.2l-.5,.7l.7,.9l-.4,.5l.7,1.8l-.3,2.4l.6,1.1l-.4,1.5l1,1.3l-.4,.7l.8,1.2l1.9,1.5l-1.2,1.6l-.1,.5l.6,.3l-.5,.2l-3.9,-.5l-4.4,.3l-.2,.5l.5,1.4l-4.2,1l-.1,1.4l-.6,.6l.1,1l.3,-.3l.9,1.1l-1.2,1.3l-.3,1l-2.5,.6l-4.2,3l-1.7,1.9l-.4,1.1l-.4,.2l-.3,-.6l-.3,.1l.2,-.3l-2.4,.7l-1,-.4l-1.9,.4l-2,-.3l-1,.7l-1.3,.1l-5.4,3.8v8.1Z" class="g5"/>
<path d="M427.8,201.7l19.5,13.2l30.5,21.4l.1,2.2l.7,-.1l1.4,.8l1,1.6l.7,.4l1.8,-.4l.5,1.3l1.6,-.1l.4,.5l2.5,.8v2.1l-.7,1.7l1.4,.9l12.3,-2.6l8.4,-7.6l23,-14.7l-2,-4.1l-.9,.3l-2.7,-2l-2.7,.2l-.7,-.7l-1,-1.8v-2.2l-3.2,-4.7l.6,-1.1l1.8,-.7l.2,-.8l.1,-1.2l-.7,-2.2l.4,-1.8l-.2,-.1l.5,-.6l.2,-1.2l-.7,-2.3l.4,-2.7l-.7,-3.9l-1.9,-3.9v-.5l.8,-.3L518,173.7l-3.6,-2.4l-.2,-2L513,167.9l.1,-.2l-1.8,-1v-1l-1.1,-2.3v-1.6l.6,-.8l.8,-.1l.3,-1.3l1.5,-.9l.7,-1.1l-.2,-1.1l1,-1.9l-.7,-.6l.3,-.9l-.6,-2.6l.8,-3.4l-1.3,-.4l1.5,-.9l-.1,-.9l1.2,-.3l-.1,-.8l-1.1,.3l-1.1,-.4l-1.9,.7l-.4,-.2v-.5l-2.8,-.9l.2,.4l-.5,.7l-1.2,.3l-2.6,-1.3l-.7,.3l-.2,.7l-2.8,.7l-1.6,1.1l-1.1,-.2l-.2,-.7l-1.6,-.7l-4.6,-.2l-2.1,1l-1.3,-.3l-.3,.4l-1.3,-.4l-1.8,1.4l-1.1,-.3l-1.8,.5l-3.3,.1l-5.1,2.2l-2.2,2.5l-.9,-.1l-.3,-.5h-.7l-.9,1.1l-.9,-.3l-1,.5l-.9,.8l-.4,1.2l-2.5,1.5l-2.3,.2l2.4,2.2l-.5,.7l.7,.9l-.4,.5l.7,1.8l-.3,2.4l.6,1.1l-.4,1.5l1,1.3l-.4,.7l.8,1.2l1.9,1.5l-1.2,1.6l-.1,.5l.6,.3l-.5,.2l-3.9,-.5l-4.4,.3l-.2,.5l.5,1.4l-4.2,1l-.1,1.4l-.6,.6l.1,1l.3,-.3l.9,1.1l-1.2,1.3l-.3,1l-2.5,.6l-4.2,3l-1.7,1.9l-.4,1.1l-.4,.2l-.3,-.6l-.3,.1l.2,-.3l-2.4,.7l-1,-.4l-1.9,.4l-2,-.3l-1,.7l-1.3,.1l-5.4,3.8v8.1Z" class="g3"/>
<path d="M55,89.8V564M1050,89.8V564M55,89.8h995M55,564h995" class="ga"/>
<path d="M57.8,550.4H202.6v11.5H57.8V550.4Z" class="gb"/>
<text x="60" y="559" dx="0,.1,-4,-4,-4,-4,-6.5,-1.5,-4,-4,-4,-4,-4.5,-6.5,.1,-2,-4,-4,-4,-3,-6.5,-6,-4,-4,-6.5,-1.5,-4" class="s1">2020 Mapbox OpenStreetMap</text>
<text x="57" y="77" dx="0,-7.1,-7.1,-7.7,-7.7,-9.8,-13.6" class="s2">Sheet 3</text>
<path d="M1057.7,89.8H1155v45.9h-97.3V89.8Z" class="g0"/>
<text x="1060" y="131" dx="0,-7.1,-4.2,-7.3,-4.2,-4.2" class="s3">-2.929</text>
<text x="1123" y="131" dx="0,-4.2,-7.3,-4.2,-4.2" class="s3">5.273</text>
<text x="1057" y="103" dx="0,-4,-4.6,-6,-5.4,-4.6,-4.3,-5.9,-8.2,-4.2,-4.3,-4.5,-4.3,-4.2" class="s4">Percent Change</text>
<path d="M1060.4,108.5h2.1V119h-2.1V108.5Z" class="gc"/>
<path d="M1061.8,108.5h1.4V119h-1.4V108.5Z" class="gc"/>
<path d="M1062.5,108.5h1.4V119h-1.4V108.5Z" class="gc"/>
<path d="M1063.2,108.5h1.4V119h-1.4V108.5Z" class="gc"/>
<path d="M1063.9,108.5h1.4V119h-1.4V108.5Z" class="gc"/>
<path d="M1064.6,108.5h1.4V119h-1.4V108.5Z" class="gc"/>
<path d="M1065.3,108.5h1.4V119h-1.4V108.5Z" class="gc"/>
<path d="M1066,108.5h1.4V119H1066V108.5Z" class="gc"/>
<path d="M1066.7,108.5h1.4V119h-1.4V108.5Z" class="gc"/>
<path d="M1067.4,108.5h1.4V119h-1.4V108.5Z" class="gc"/>
<path d="M1068.1,108.5h1.4V119h-1.4V108.5Z" class="gc"/>
<path d="M1068.8,108.5h1.4V119h-1.4V108.5Z" class="gc"/>
<path d="M1069.5,108.5h1.4V119h-1.4V108.5Z" class="gc"/>
<path d="M1070.2,108.5h1.4V119h-1.4V108.5Z" class="gc"/>
<path d="M1070.9,108.5h1.4V119h-1.4V108.5Z" class="gc"/>
<path d="M1071.6,108.5h1.4V119h-1.4V108.5Z" class="gc"/>
<path d="M1072.3,108.5h1.3V119h-1.3V108.5Z" class="gc"/>
<path d="M1073,108.5h1.3V119H1073V108.5Z" class="gc"/>
<path d="M1073.6,108.5h1.4V119h-1.4V108.5Z" class="gc"/>
<path d="M1074.3,108.5h1.4V119h-1.4V108.5Z" class="gd"/>
<path d="M1075,108.5h1.4V119H1075V108.5Z" class="gd"/>
<path d="M1075.7,108.5h1.4V119h-1.4V108.5Z" class="gd"/>
<path d="M1076.4,108.5h1.4V119h-1.4V108.5Z" class="gd"/>
<path d="M1077.1,108.5h1.4V119h-1.4V108.5Z" class="gd"/>
<path d="M1077.8,108.5h1.4V119h-1.4V108.5Z" class="gd"/>
<path d="M1078.5,108.5h1.4V119h-1.4V108.5Z" class="gd"/>
<path d="M1079.2,108.5h1.4V119h-1.4V108.5Z" class="gd"/>
<path d="M1079.9,108.5h1.4V119h-1.4V108.5Z" class="gd"/>
<path d="M1080.6,108.5h1.4V119h-1.4V108.5Z" class="gd"/>
<path d="M1081.3,108.5h1.4V119h-1.4V108.5Z" class="gd"/>
<path d="M1082,108.5h1.4V119H1082V108.5Z" class="gd"/>
<path d="M1082.7,108.5h1.4V119h-1.4V108.5Z" class="gd"/>
<path d="M1083.4,108.5h1.4V119h-1.4V108.5Z" class="gd"/>
<path d="M1084.1,108.5h1.4V119h-1.4V108.5Z" class="gd"/>
<path d="M1084.8,108.5h1.4V119h-1.4V108.5Z" class="gd"/>
<path d="M1085.5,108.5h1.4V119h-1.4V108.5Z" class="gd"/>
<path d="M1086.2,108.5h1.4V119h-1.4V108.5Z" class="gd"/>
<path d="M1086.9,108.5h1.3V119h-1.3V108.5Z" class="ge"/>
<path d="M1087.6,108.5h1.3V119h-1.3V108.5Z" class="ge"/>
<path d="M1088.2,108.5h1.4V119h-1.4V108.5Z" class="ge"/>
<path d="M1088.9,108.5h1.4V119h-1.4V108.5Z" class="ge"/>
<path d="M1089.6,108.5h1.4V119h-1.4V108.5Z" class="ge"/>
<path d="M1090.3,108.5h1.4V119h-1.4V108.5Z" class="ge"/>
<path d="M1091,108.5h1.4V119H1091V108.5Z" class="ge"/>
<path d="M1091.7,108.5h1.4V119h-1.4V108.5Z" class="ge"/>
<path d="M1092.4,108.5h1.4V119h-1.4V108.5Z" class="ge"/>
<path d="M1093.1,108.5h1.4V119h-1.4V108.5Z" class="ge"/>
<path d="M1093.8,108.5h1.4V119h-1.4V108.5Z" class="ge"/>
<path d="M1094.5,108.5h1.4V119h-1.4V108.5Z" class="ge"/>
<path d="M1095.2,108.5h1.4V119h-1.4V108.5Z" class="ge"/>
<path d="M1095.9,108.5h1.4V119h-1.4V108.5Z" class="ge"/>
<path d="M1096.6,108.5h1.4V119h-1.4V108.5Z" class="ge"/>
<path d="M1097.3,108.5h1.4V119h-1.4V108.5Z" class="ge"/>
<path d="M1098,108.5h1.4V119H1098V108.5Z" class="ge"/>
<path d="M1098.7,108.5h1.4V119h-1.4V108.5Z" class="ge"/>
<path d="M1099.4,108.5h1.4V119h-1.4V108.5Z" class="ge"/>
<path d="M1100.1,108.5h1.4V119h-1.4V108.5Z" class="gf"/>
<path d="M1100.8,108.5h1.4V119h-1.4V108.5Z" class="gf"/>
<path d="M1101.5,108.5h1.3V119h-1.3V108.5Z" class="gf"/>
<path d="M1102.2,108.5h1.3V119h-1.3V108.5Z" class="gf"/>
<path d="M1102.8,108.5h1.4V119h-1.4V108.5Z" class="gf"/>
<path d="M1103.5,108.5h1.4V119h-1.4V108.5Z" class="gf"/>
<path d="M1104.2,108.5h1.4V119h-1.4V108.5Z" class="gf"/>
<path d="M1104.9,108.5h1.4V119h-1.4V108.5Z" class="gf"/>
<path d="M1105.6,108.5h1.4V119h-1.4V108.5Z" class="gf"/>
<path d="M1106.3,108.5h1.4V119h-1.4V108.5Z" class="gf"/>
<path d="M1107,108.5h1.4V119H1107V108.5Z" class="gf"/>
<path d="M1107.7,108.5h1.4V119h-1.4V108.5Z" class="gf"/>
<path d="M1108.4,108.5h1.4V119h-1.4V108.5Z" class="gf"/>
<path d="M1109.1,108.5h1.4V119h-1.4V108.5Z" class="gf"/>
<path d="M1109.8,108.5h1.4V119h-1.4V108.5Z" class="gf"/>
<path d="M1110.5,108.5h1.4V119h-1.4V108.5Z" class="gf"/>
<path d="M1111.2,108.5h1.4V119h-1.4V108.5Z" class="gf"/>
<path d="M1111.9,108.5h1.4V119h-1.4V108.5Z" class="gf"/>
<path d="M1112.6,108.5h1.4V119h-1.4V108.5Z" class="gg"/>
<path d="M1113.3,108.5h1.4V119h-1.4V108.5Z" class="gg"/>
<path d="M1114,108.5h1.4V119H1114V108.5Z" class="gg"/>
<path d="M1114.7,108.5h1.4V119h-1.4V108.5Z" class="gg"/>
<path d="M1115.4,108.5h1.4V119h-1.4V108.5Z" class="gg"/>
<path d="M1116.1,108.5h1.4V119h-1.4V108.5Z" class="gg"/>
<path d="M1116.8,108.5h1.3V119h-1.3V108.5Z" class="gg"/>
<path d="M1117.5,108.5h1.3V119h-1.3V108.5Z" class="gg"/>
<path d="M1118.1,108.5h1.4V119h-1.4V108.5Z" class="gg"/>
<path d="M1118.8,108.5h1.4V119h-1.4V108.5Z" class="gg"/>
<path d="M1119.5,108.5h1.4V119h-1.4V108.5Z" class="gg"/>
<path d="M1120.2,108.5h1.4V119h-1.4V108.5Z" class="gg"/>
<path d="M1120.9,108.5h1.4V119h-1.4V108.5Z" class="gg"/>
<path d="M1121.6,108.5h1.4V119h-1.4V108.5Z" class="gg"/>
<path d="M1122.3,108.5h1.4V119h-1.4V108.5Z" class="gg"/>
<path d="M1123,108.5h1.4V119H1123V108.5Z" class="gg"/>
<path d="M1123.7,108.5h1.4V119h-1.4V108.5Z" class="gg"/>
<path d="M1124.4,108.5h1.4V119h-1.4V108.5Z" class="gg"/>
<path d="M1125.1,108.5h1.4V119h-1.4V108.5Z" class="gg"/>
<path d="M1125.8,108.5h1.4V119h-1.4V108.5Z" class="gh"/>
<path d="M1126.5,108.5h1.4V119h-1.4V108.5Z" class="gh"/>
<path d="M1127.2,108.5h1.4V119h-1.4V108.5Z" class="gh"/>
<path d="M1127.9,108.5h1.4V119h-1.4V108.5Z" class="gh"/>
<path d="M1128.6,108.5h1.4V119h-1.4V108.5Z" class="gh"/>
<path d="M1129.3,108.5h1.4V119h-1.4V108.5Z" class="gh"/>
<path d="M1130,108.5h1.4V119H1130V108.5Z" class="gh"/>
<path d="M1130.7,108.5h1.4V119h-1.4V108.5Z" class="gh"/>
<path d="M1131.4,108.5h1.3V119h-1.3V108.5Z" class="gh"/>
<path d="M1132.1,108.5h1.3V119h-1.3V108.5Z" class="gh"/>
<path d="M1132.7,108.5h1.4V119h-1.4V108.5Z" class="gh"/>
<path d="M1133.4,108.5h1.4V119h-1.4V108.5Z" class="gh"/>
<path d="M1134.1,108.5h1.4V119h-1.4V108.5Z" class="gh"/>
<path d="M1134.8,108.5h1.4V119h-1.4V108.5Z" class="gh"/>
<path d="M1135.5,108.5h1.4V119h-1.4V108.5Z" class="gh"/>
<path d="M1136.2,108.5h1.4V119h-1.4V108.5Z" class="gh"/>
<path d="M1136.9,108.5h1.4V119h-1.4V108.5Z" class="gh"/>
<path d="M1137.6,108.5h1.4V119h-1.4V108.5Z" class="gh"/>
<path d="M1138.3,108.5h1.4V119h-1.4V108.5Z" class="gi"/>
<path d="M1139,108.5h1.4V119H1139V108.5Z" class="gi"/>
<path d="M1139.7,108.5h1.4V119h-1.4V108.5Z" class="gi"/>
<path d="M1140.4,108.5h1.4V119h-1.4V108.5Z" class="gi"/>
<path d="M1141.1,108.5h1.4V119h-1.4V108.5Z" class="gi"/>
<path d="M1141.8,108.5h1.4V119h-1.4V108.5Z" class="gi"/>
<path d="M1142.5,108.5h1.4V119h-1.4V108.5Z" class="gi"/>
<path d="M1143.2,108.5h1.4V119h-1.4V108.5Z" class="gi"/>
<path d="M1143.9,108.5h1.4V119h-1.4V108.5Z" class="gi"/>
<path d="M1144.6,108.5h1.4V119h-1.4V108.5Z" class="gi"/>
<path d="M1145.3,108.5h1.4V119h-1.4V108.5Z" class="gi"/>
<path d="M1146,108.5h1.4V119H1146V108.5Z" class="gi"/>
<path d="M1146.7,108.5h1.3V119h-1.3V108.5Z" class="gi"/>
<path d="M1147.4,108.5h1.3V119h-1.3V108.5Z" class="gi"/>
<path d="M1148,108.5h1.4V119H1148V108.5Z" class="gi"/>
<path d="M1148.7,108.5h1.4V119h-1.4V108.5Z" class="gi"/>
<path d="M1149.4,108.5h1.4V119h-1.4V108.5Z" class="gi"/>
<path d="M1150.1,108.5h1.4V119h-1.4V108.5Z" class="gi"/>
<path d="M1150.8,108.5h.7V119h-.7V108.5Z" class="gi"/>
<path d="M1060.4,108.5h91.1V119h-91.1V108.5Z" class="gj"/>
<path d="M1093.1,117.6v2.8" class="gk"/>
<text x="55" y="580" dx="0,-.9,-4.5,-4.2,-8.2,-4.3,-4.5,-5.1,-4.6,-4.2,-8.2,-4.4,-4.3,-8.2,-5.2,-4.4,-4.3,-4.2,-7.4,-5.9,-4.3,-4.2,-4.6,-8.2,-6.5,-4.2,-4.6,-4.3,-4.6,-6,-4.5,-5.9,-4.6,-4.2,-6.5,-8.2,-4.5,-4.3,-4.2,-8.2,-5.2,-4.5,-5.9,-7.4,-5.9,-4.3,-4.2,-4.6,-8.2,-6.5,-4.2,-4.6,-4.3,-4.6,-6,-4.5,-5.9,-4.6,-4.2,-6.5,-7.3,-8.2,-8.2,-4.2,-4.4,-7.4,-4.4,-6,-8.2,-5.1,-4.3,-4.4,-1.7,-5.1,-8.2,-5.1,-4.3,1,-4.4,-6.3,-8.2,-4,-4.6,-6,-5.4,-4.6,-4.3,-5.9,-8.2,-4.2,-4.3,-4.5,-4.3,-4.2,-4.6,-7.3,-8.2,-8.2,-3.2,-4.6,-5.9,-4.5,-7.4,-7.4,-5.1,-8.2,-4.5,-6,-4.6,-8.2,-5.1,-4.3,-4.4,-1.7,-4.3,-8.2,-6.3,-4.4,-6,-8.2,-4.2,-4.4,-4.3,-4.3,-5.9,-6,-4.7,-7.3,-8.2,-4.4,-4.3,-4.6,-8.2,-4.8,-7.4,-4.6,.5,-7.4,-5.1,-8.2,-3.3,-7.4,-5.9,-4.6,-6,-4.6,-4.2,-8.2,-4.4,-4.3,-8.2,-4.2,-4.4,-4.3,-4.3,-5.9,-6,-4.7,-7.3,-8.2,-1.7,-4.3,-7.4,-5.4,-4.3,-8.2,-4.8,-4.6,-4.6,-4.2,-5.1,-8.2,-4.2,-4.2,-8.2,-4.4,-6.3,-8.2,-4.2,-4.2,-4.2,-8.2,-1.2,-4.6,-1.2,-4.3,-4.6,-6,-5.1" class="s5">Map based on Longitude (generated) and Latitude (generated).  Color shows sumof Percent Change.  Details are shown for Country. The viewis ltered on Country, which keeps 33 of 139 members.</text>

</g>

<!-- Any embedded fonts defined here -->
<style type="text/css" ><![CDATA[

@font-face {
	font-family: Arial-0-50_v;
	src: url("fonts/Arial-0-50_v.woff") format("woff");
}

@font-face {
	font-family: TableauBook-0-50_p;
	src: url("fonts/TableauBook-0-50_p.woff") format("woff");
}

@font-face {
	font-family: TableauLight-0-50__;
	src: url("fonts/TableauLight-0-50__.woff") format("woff");
}

@font-face {
	font-family: TableauMedium-0-50_j;
	src: url("fonts/TableauMedium-0-50_j.woff") format("woff");
}

]]></style>

</svg>
